<?xml version="1.0" encoding="iso-8859-1"?>
<!-- Generator: Adobe Illustrator 30.2.1, SVG Export Plug-In . SVG Version: 9.03 Build 0)  -->
<svg version="1.1" id="Layer_1" xmlns="http://www.w3.org/2000/svg" xmlns:xlink="http://www.w3.org/1999/xlink" x="0px" y="0px"
	 viewBox="0 0 373.926 340.369" style="enable-background:new 0 0 373.926 340.369;" xml:space="preserve">
<g id="Logos_xA0__00000176735353134461834190000006628144091964222882_">
	<g id="NEW-GRP_00000112596168288134769600000003404636253593559196_">
		<path style="fill:#FFFFFF;" d="M1663.866-662.379v-71.256h21.302v71.256c0,10.87,5.435,18.51,19.687,18.51
			c13.513,0,19.831-7.933,19.831-18.807v-70.958h21.302v71.256c0,22.479-13.81,35.553-40.695,35.553
			C1678.118-626.826,1663.866-639.608,1663.866-662.379z"/>
		<path style="fill:#FFFFFF;" d="M1779.207-693.671h0.442c5.142-8.082,12.047-12.34,22.33-12.34
			c15.573,0,26.005,11.753,26.005,28.207v49.215h-19.98v-46.279c0-8.082-4.7-13.81-13.075-13.81c-8.817,0-15.28,7.054-15.28,17.337
			v42.752h-19.98v-75.365h19.542v10.283H1779.207z"/>
		<path style="fill:#FFFFFF;" d="M1836.665-666.199c0-22.479,14.69-39.815,37.61-39.815c19.538,0,31.585,11.312,34.232,27.62
			h-19.542c-1.322-6.612-6.463-11.605-13.81-11.605c-12.051,0-18.221,9.255-18.221,23.8c0,14.252,5.728,23.8,17.923,23.8
			c8.082,0,13.81-4.262,15.132-12.782h19.245c-1.322,16.011-13.81,28.793-33.935,28.793
			C1851.503-626.384,1836.665-643.721,1836.665-666.199z"/>
		<path style="fill:#FFFFFF;" d="M1937.903-694.113h0.442c5.435-7.933,11.605-11.902,21.888-11.902
			c15.573,0,26.005,11.753,26.005,28.207v49.215h-19.98v-46.274c0-8.082-4.7-13.81-13.075-13.81c-8.817,0-15.28,7.054-15.28,17.337
			v42.752h-19.98v-105.046h19.98C1937.903-733.635,1937.903-694.113,1937.903-694.113z"/>
		<path style="fill:#FFFFFF;" d="M2043.692-636.964h-0.293c-3.82,5.732-9.255,10.139-22.185,10.139
			c-15.425,0-26.299-8.082-26.299-23.065c0-16.602,13.513-21.888,30.263-24.242c12.489-1.763,18.217-2.792,18.217-8.52
			c0-5.435-4.262-8.958-12.637-8.958c-9.404,0-13.955,3.378-14.545,10.576h-17.775c0.586-13.224,10.432-24.828,32.469-24.828
			c22.627,0,31.733,10.139,31.733,27.769v38.345c0,5.728,0.88,9.106,2.643,10.432v0.735h-19.245
			C2044.869-630.055,2044.134-633.582,2043.692-636.964z M2043.841-655.181v-11.316c-3.527,2.057-8.962,3.234-13.959,4.411
			c-10.432,2.35-15.573,4.7-15.573,11.753s4.7,9.548,11.753,9.548C2037.522-640.785,2043.841-647.834,2043.841-655.181z"/>
		<path style="fill:#FFFFFF;" d="M2094.534-691.907h0.442c4.555-8.52,9.697-12.926,18.514-12.926c2.205,0,3.527,0.145,4.7,0.586
			v17.482h-0.442c-13.075-1.322-22.479,5.583-22.479,21.45v36.73h-19.98v-75.369h19.245
			C2094.534-703.954,2094.534-691.907,2094.534-691.907z"/>
		<path style="fill:#FFFFFF;" d="M2123.191-703.954h10.432v-23.507h19.542v23.507h12.926v13.224h-12.926v39.96
			c0,5.583,3.085,7.496,7.491,7.496c2.499,0,5.877-0.149,5.877-0.149v14.694c0,0-4.551,0.293-12.489,0.293
			c-9.697,0-20.422-3.82-20.422-18.068v-44.23h-10.432V-703.954z"/>
		<path style="fill:#FFFFFF;" d="M2171.972-666.344c0-22.334,15.132-39.667,37.168-39.667c24.238,0,37.168,18.51,37.168,45.395
			h-54.65c1.466,11.605,7.933,18.807,19.245,18.807c7.785,0,12.34-3.527,14.545-9.255h19.687
			c-2.792,13.372-14.694,24.684-34.083,24.684C2186.075-626.384,2171.972-643.87,2171.972-666.344z M2191.952-674.426h33.497
			c-0.591-9.552-6.905-16.16-16.015-16.16C2198.857-690.586,2193.716-684.267,2191.952-674.426z"/>
		<path style="fill:#FFFFFF;" d="M2325.803-733.635h-19.98v38.787h-0.442c-4.113-6.319-10.725-11.167-21.302-11.167
			c-18.807,0-32.175,16.309-32.175,39.815c0,24.386,12.926,39.815,31.878,39.815c10.581,0,18.068-4.848,22.479-12.047h0.293v9.784
			l19.245-7.392v-97.595H2325.803z M2288.193-643.134c-10.283,0-16.011-8.52-16.011-23.065c0-13.959,5.583-23.651,16.602-23.651
			c12.782,0,17.481,9.693,17.481,24.093C2306.265-651.947,2300.095-643.134,2288.193-643.134z"/>
		<path style="fill:#FFFFFF;" d="M2395.626-556.47c-0.413-0.624-0.809-1.255-1.21-1.891c-0.921-1.458-1.813-2.94-2.664-4.444
			c-0.285-0.5-0.582-0.987-0.859-1.491c-1.045-1.908-2.024-3.857-2.957-5.831c-0.302-0.64-0.586-1.293-0.875-1.941
			c-0.686-1.528-1.334-3.073-1.949-4.634c-0.26-0.657-0.529-1.305-0.776-1.97c-0.739-1.991-1.421-4.006-2.044-6.05
			c-0.252-0.822-0.471-1.652-0.706-2.482c-0.388-1.379-0.748-2.771-1.078-4.171c-0.145-0.611-0.339-1.21-0.471-1.825l-25.097-9.833
			c1.982,19.216,8.099,37.214,17.411,53.122c8.107-2.048,16.49-3.374,25.114-3.936
			C2396.848-554.724,2396.212-555.578,2395.626-556.47z"/>
		<path style="fill:#FFFFFF;" d="M2325.766-527.909c0.533-1.949,0.888-3.994,0.888-6.215c0-17.63-13.959-21.153-26.592-23.8
			c-10.725-2.205-20.715-2.792-20.715-9.255c0-5.435,5.142-8.371,12.926-8.371c8.52,0,13.662,2.936,14.545,11.018h18.072
			c-1.47-15.132-12.489-24.973-32.324-24.973c-17.188,0-30.705,7.785-30.705,24.093c0,16.457,13.224,20.129,26.74,22.772
			c10.283,2.057,19.831,2.792,19.831,9.99c0,5.286-4.993,8.668-13.81,8.668c-8.962,0-15.132-3.82-16.457-12.489h-18.51
			c1.177,16.011,13.368,26.592,35.26,26.592c4.283,0,8.21-0.529,11.799-1.437l5.232-5.084
			C2316.325-520.624,2320.984-524.374,2325.766-527.909z"/>
		<g>
			<path style="fill:#FFFFFF;" d="M2499.697-748.767l-12.881-33.736v56.413c0.021,0,0.041,0,0.062,0
				c7.661,0,15.132,0.793,22.351,2.292l-0.054-0.145c14.487,3.006,27.868,8.962,39.629,17.106l20.674-13.492
				C2549.932-735.943,2525.954-746.235,2499.697-748.767z"/>
			<path style="fill:#FFFFFF;" d="M2618.957-629.308c-2.445-25.886-12.451-49.554-27.653-68.968l-13.5,20.802
				c0.095,0.14,0.198,0.277,0.293,0.421c0.57,0.859,1.123,1.73,1.672,2.606c0.764,1.227,1.499,2.474,2.214,3.733
				c0.603,1.057,1.189,2.119,1.755,3.201c0.743,1.417,1.462,2.845,2.148,4.299c0.429,0.913,0.842,1.834,1.247,2.763
				c0.562,1.289,1.094,2.594,1.606,3.907c0.512,1.305,1,2.618,1.462,3.948c0.475,1.371,0.938,2.746,1.359,4.142
				c0.334,1.107,0.648,2.226,0.95,3.345c0.293,1.094,0.558,2.193,0.818,3.3c0.215,0.909,1.755,6.496,1.949,7.417l24.362,11.7
				L2618.957-629.308z"/>
			<path style="fill:#FFFFFF;" d="M2618.276-595.716c0.409-2.606,0.855-5.199,1.111-7.855l33.737-12.881h-56.413
				c0,0.021,0,0.041,0,0.062c0,3.349-0.215,6.649-0.512,9.924c6.905,2.053,14.306,5.625,20.756,11.964L2618.276-595.716z"/>
			<path style="fill:#FFFFFF;" d="M2445.939-549.305c31.49-20.554,61.984-40.456,65.87-42.991
				c5.088-7.83,89.708-138.212,89.708-138.212s-130.642,85.252-138.575,90.43c-3.481,5.323-30.812,47.08-56.211,85.883
				c0.12,0,0.231-0.012,0.351-0.012C2420.099-554.211,2433.157-552.531,2445.939-549.305z M2567.058-696.153
				c0,0-52.064,80.18-52.238,80.267c1.322-16.461-10.485-29.202-27.926-27.616C2500.663-652.55,2567.058-696.153,2567.058-696.153z
				 M2467.761-621.16c2.746-9.214,10.8-13.166,17.362-14.43c0.578-0.012,1.074,0.087,1.627,0.107
				c13.393,0.512,19.984,10.011,19.798,19.687c-0.169,8.966-6.087,18.006-17.89,19.972c-0.644,0.107-1.276,0.145-1.908,0.178
				c-10.89,0.595-19.864-9.292-19.773-20.149C2466.993-617.571,2467.232-619.372,2467.761-621.16z"/>
			<path style="fill:#FFFFFF;" d="M2533.495-562.847c0,0,14.248-17.135,27.372-12.166c13.112,4.964,20.984,20.071,9.123,35.888
				s-42.578,20.071-63.562,15.813c-20.984-4.258-49.876-13.079-61.435-16.119s-75.121-19.158-126.215,30.11
				c0,0,46.531-32.844,109.485-13.992c62.955,18.853,86.676,41.971,136.25,40.146c49.574-1.825,70.256-21.896,86.375-44.705
				c0,0-33.15,39.233-96.104,23.722c0,0,71.165-0.306,86.069-34.67c14.905-34.364-5.476-51.4-16.424-61.435
				c0,0,7.632,9.66,9.061,25.279c0.942,10.283-2.309,21.764-13.926,30.379c0,0,5.249-22.635-4.77-37.222
				c-10.985-15.999-28.537-17.349-39.184-17.655C2564.964-599.78,2539.273-593.564,2533.495-562.847z"/>
			<path style="fill:#FFFFFF;" d="M2380.374-639.727c2.59-11.877,7.169-22.995,13.277-33.084c0.091-0.149,0.178-0.297,0.264-0.446
				c0.867-1.421,1.759-2.821,2.688-4.196c0.107-0.161,0.223-0.314,0.334-0.475c1.59-2.325,3.267-4.576,5.026-6.769
				c0.475-0.595,0.95-1.189,1.437-1.776c0.814-0.971,1.635-1.924,2.482-2.866c0.735-0.822,1.491-1.619,2.251-2.416
				c1.078-1.127,2.172-2.238,3.296-3.32c1.024-0.991,2.065-1.966,3.126-2.916c0.706-0.628,1.417-1.243,2.135-1.85
				c1.193-1.012,2.412-1.995,3.646-2.953c0.512-0.396,1.004-0.809,1.524-1.198c1.697-1.272,3.444-2.478,5.22-3.651
				c0.624-0.413,1.255-0.809,1.891-1.21c1.458-0.921,2.94-1.813,4.444-2.664c0.5-0.285,0.987-0.582,1.491-0.859
				c1.908-1.045,3.857-2.024,5.831-2.957c0.64-0.301,1.292-0.586,1.941-0.875c1.528-0.686,3.073-1.334,4.634-1.949
				c0.657-0.26,1.305-0.529,1.97-0.776c1.991-0.739,4.006-1.421,6.05-2.044c0.822-0.252,1.652-0.471,2.482-0.706
				c1.379-0.388,2.771-0.747,4.171-1.078c0.611-0.145,1.21-0.334,1.825-0.471l9.833-25.097
				c-62.203,6.409-111.798,55.955-118.257,118.141l-34.636,13.224h57.235c0.041-7.83,0.917-15.458,2.519-22.813L2380.374-639.727z"
				/>
		</g>
		<path style="fill:#FFFFFF;" d="M1832.519-617.129h21.302v105.046h-21.302V-617.129z"/>
		<path style="fill:#FFFFFF;" d="M1888.056-577.165h0.442c5.142-8.082,12.047-12.34,22.33-12.34
			c15.573,0,26.005,11.753,26.005,28.207v49.215h-19.98v-46.279c0-8.082-4.7-13.81-13.075-13.81c-8.817,0-15.28,7.054-15.28,17.337
			v42.752h-19.98v-75.369h19.542v10.287H1888.056z"/>
		<path style="fill:#FFFFFF;" d="M1944.486-536.47h18.51c1.326,8.668,7.496,12.488,16.457,12.488c8.817,0,13.81-3.378,13.81-8.668
			c0-7.198-9.548-7.933-19.831-9.99c-13.517-2.643-26.74-6.314-26.74-22.772c0-16.309,13.517-24.093,30.705-24.093
			c19.835,0,30.854,9.841,32.324,24.973h-18.072c-0.88-8.082-6.021-11.018-14.545-11.018c-7.785,0-12.926,2.936-12.926,8.371
			c0,6.463,9.99,7.054,20.715,9.255c12.633,2.643,26.592,6.17,26.592,23.8c0,15.136-12.926,24.242-31.734,24.242
			C1957.854-509.878,1945.663-520.459,1944.486-536.47z"/>
		<path style="fill:#FFFFFF;" d="M2020.45-617.129h19.98v17.923h-19.98V-617.129z M2020.45-587.448h19.98v75.369h-19.98V-587.448z"
			/>
		<path style="fill:#FFFFFF;" d="M2051.303-509.878h19.835c1.615,4.7,5.873,8.375,15.132,8.375c11.316,0,16.746-5.435,16.746-15.722
			v-8.227h-0.442c-4.406,4.993-10.135,8.813-19.687,8.813c-16.746,0-33.199-13.224-33.199-35.995
			c0-22.479,13.513-36.875,32.613-36.875c9.404,0,16.309,3.671,20.864,9.99h0.293v-7.933h19.245v69.637
			c0,10.576-3.378,17.775-8.962,22.916c-6.314,5.877-16.011,8.52-27.178,8.52C2065.997-486.371,2053.36-495.184,2051.303-509.878z
			 M2104.049-553.072c0-11.018-5.877-20.422-17.923-20.422c-10.139,0-16.895,7.933-16.895,20.566
			c0,12.782,6.76,20.277,17.044,20.277C2098.908-532.65,2104.049-541.909,2104.049-553.072z"/>
		<path style="fill:#FFFFFF;" d="M2155.626-577.607h0.442c5.435-7.933,11.605-11.902,21.888-11.902
			c15.573,0,26.005,11.753,26.005,28.207v49.219h-19.98v-46.279c0-8.082-4.7-13.81-13.075-13.81c-8.817,0-15.28,7.054-15.28,17.337
			v42.752h-19.98v-105.046h19.98C2155.626-617.129,2155.626-577.607,2155.626-577.607z"/>
		<path style="fill:#FFFFFF;" d="M2210.441-587.448h10.432v-23.507h19.542v23.507h12.926v13.224h-12.926v39.96
			c0,5.583,3.085,7.496,7.491,7.496c2.499,0,5.877-0.149,5.877-0.149v14.694c0,0-4.551,0.293-12.489,0.293
			c-9.697,0-20.422-3.82-20.422-18.068v-44.23h-10.432V-587.448L2210.441-587.448z"/>
	</g>
</g>
<path style="fill:#FFFFFF;" d="M2395.626,244.281c-0.413-0.624-0.809-1.255-1.21-1.891c-0.921-1.458-1.813-2.94-2.664-4.444
	c-0.285-0.5-0.582-0.987-0.859-1.491c-1.045-1.908-2.024-3.857-2.957-5.831c-0.302-0.64-0.586-1.293-0.875-1.941
	c-0.686-1.528-1.334-3.073-1.949-4.634c-0.26-0.657-0.529-1.305-0.776-1.97c-0.739-1.991-1.421-4.006-2.044-6.05
	c-0.252-0.822-0.471-1.652-0.706-2.482c-0.388-1.379-0.748-2.771-1.078-4.171c-0.145-0.611-0.339-1.21-0.471-1.825l-25.097-9.833
	c1.982,19.216,8.099,37.214,17.411,53.122c8.107-2.048,16.49-3.374,25.114-3.936
	C2396.848,246.028,2396.212,245.173,2395.626,244.281z"/>
<path style="fill:#FFFFFF;" d="M2499.697,51.985l-12.881-33.736v56.413c0.021,0,0.041,0,0.062,0c7.661,0,15.132,0.793,22.351,2.292
	l-0.054-0.145c14.487,3.007,27.868,8.962,39.629,17.106l20.674-13.492C2549.932,64.808,2525.954,54.516,2499.697,51.985z"/>
<path style="fill:#FFFFFF;" d="M2618.957,171.444c-2.445-25.886-12.451-49.554-27.653-68.968l-13.5,20.802
	c0.095,0.14,0.198,0.277,0.293,0.421c0.57,0.859,1.123,1.73,1.672,2.606c0.764,1.227,1.499,2.474,2.214,3.733
	c0.603,1.057,1.189,2.119,1.755,3.201c0.743,1.417,1.462,2.845,2.148,4.299c0.429,0.913,0.842,1.834,1.247,2.763
	c0.562,1.288,1.094,2.594,1.606,3.907c0.512,1.305,1,2.618,1.462,3.948c0.475,1.371,0.938,2.746,1.359,4.142
	c0.334,1.107,0.648,2.226,0.95,3.345c0.293,1.094,0.558,2.193,0.818,3.3c0.215,0.909,1.755,6.496,1.949,7.417l24.362,11.7
	L2618.957,171.444z"/>
<path style="fill:#FFFFFF;" d="M2618.276,205.035c0.409-2.606,0.855-5.199,1.111-7.855l33.737-12.881h-56.413
	c0,0.021,0,0.041,0,0.062c0,3.349-0.215,6.649-0.512,9.924c6.905,2.053,14.306,5.625,20.756,11.964L2618.276,205.035z"/>
<path style="fill:#E6E7E8;" d="M2445.939,251.446c31.49-20.554,61.984-40.456,65.87-42.991
	c5.088-7.83,89.708-138.212,89.708-138.212s-130.642,85.252-138.575,90.43c-3.481,5.323-30.812,47.08-56.211,85.883
	c0.12,0,0.231-0.012,0.351-0.012C2420.099,246.54,2433.157,248.221,2445.939,251.446z M2567.058,104.599
	c0,0-52.064,80.18-52.238,80.267c1.322-16.461-10.485-29.202-27.926-27.616C2500.663,148.201,2567.058,104.599,2567.058,104.599z
	 M2467.761,179.592c2.746-9.214,10.8-13.166,17.362-14.43c0.578-0.012,1.074,0.087,1.627,0.107
	c13.393,0.512,19.984,10.011,19.798,19.687c-0.169,8.966-6.087,18.006-17.89,19.972c-0.644,0.107-1.276,0.145-1.908,0.178
	c-10.89,0.595-19.864-9.292-19.773-20.149C2466.993,183.18,2467.232,181.38,2467.761,179.592z"/>
<path style="fill:#E6E7E8;" d="M2533.495,237.904c0,0,14.248-17.135,27.372-12.166c13.112,4.964,20.984,20.071,9.123,35.888
	s-42.578,20.071-63.562,15.813s-49.876-13.079-61.435-16.119c-11.559-3.04-75.121-19.158-126.215,30.11
	c0,0,46.531-32.844,109.485-13.992c62.955,18.853,86.676,41.971,136.25,40.146c49.574-1.825,70.256-21.896,86.375-44.705
	c0,0-33.15,39.233-96.104,23.722c0,0,71.165-0.306,86.069-34.67s-5.476-51.4-16.424-61.435c0,0,7.632,9.66,9.061,25.279
	c0.942,10.283-2.309,21.764-13.926,30.379c0,0,5.249-22.635-4.77-37.222c-10.985-15.999-28.537-17.349-39.184-17.655
	C2564.964,200.972,2539.273,207.187,2533.495,237.904z"/>
<path style="fill:#FFFFFF;" d="M2380.374,161.024c2.59-11.877,7.169-22.995,13.277-33.084c0.091-0.149,0.178-0.297,0.264-0.446
	c0.867-1.421,1.759-2.821,2.688-4.196c0.107-0.161,0.223-0.314,0.334-0.475c1.59-2.325,3.267-4.576,5.026-6.769
	c0.475-0.595,0.95-1.189,1.437-1.776c0.814-0.971,1.635-1.924,2.482-2.866c0.735-0.822,1.491-1.619,2.251-2.416
	c1.078-1.127,2.172-2.238,3.296-3.32c1.024-0.991,2.065-1.966,3.126-2.916c0.706-0.628,1.417-1.243,2.135-1.85
	c1.193-1.012,2.412-1.995,3.646-2.953c0.512-0.396,1.004-0.809,1.524-1.198c1.697-1.272,3.444-2.478,5.22-3.651
	c0.624-0.413,1.255-0.809,1.891-1.21c1.458-0.921,2.94-1.813,4.444-2.664c0.5-0.285,0.987-0.582,1.491-0.859
	c1.908-1.045,3.857-2.024,5.831-2.957c0.64-0.301,1.292-0.586,1.941-0.876c1.528-0.686,3.073-1.334,4.634-1.949
	c0.657-0.26,1.305-0.529,1.97-0.776c1.991-0.739,4.006-1.421,6.05-2.044c0.822-0.252,1.652-0.471,2.482-0.706
	c1.379-0.388,2.771-0.747,4.171-1.078c0.611-0.145,1.21-0.335,1.825-0.471l9.833-25.097
	c-62.203,6.409-111.798,55.955-118.257,118.141l-34.636,13.224h57.235c0.041-7.83,0.917-15.458,2.519-22.813L2380.374,161.024z"/>
<path style="fill:#FFFFFF;" d="M1663.866-270.474v-71.256h21.302v71.256c0,10.87,5.435,18.51,19.687,18.51
	c13.513,0,19.831-7.933,19.831-18.807v-70.958h21.302v71.256c0,22.479-13.81,35.553-40.695,35.553
	C1678.118-234.921,1663.866-247.702,1663.866-270.474z"/>
<path style="fill:#FFFFFF;" d="M1779.207-301.766h0.442c5.142-8.082,12.047-12.34,22.33-12.34c15.573,0,26.005,11.753,26.005,28.207
	v49.215h-19.98v-46.279c0-8.082-4.7-13.81-13.075-13.81c-8.817,0-15.28,7.054-15.28,17.337v42.752h-19.98v-75.365h19.542v10.283
	H1779.207z"/>
<path style="fill:#FFFFFF;" d="M1836.665-274.294c0-22.479,14.69-39.815,37.61-39.815c19.538,0,31.585,11.312,34.232,27.62h-19.542
	c-1.322-6.612-6.463-11.605-13.81-11.605c-12.051,0-18.221,9.255-18.221,23.8c0,14.252,5.728,23.8,17.923,23.8
	c8.082,0,13.81-4.262,15.132-12.782h19.245c-1.322,16.011-13.81,28.793-33.935,28.793
	C1851.503-234.479,1836.665-251.816,1836.665-274.294z"/>
<path style="fill:#FFFFFF;" d="M1937.903-302.208h0.442c5.435-7.933,11.605-11.902,21.888-11.902
	c15.573,0,26.005,11.753,26.005,28.207v49.215h-19.98v-46.274c0-8.082-4.7-13.81-13.075-13.81c-8.817,0-15.28,7.054-15.28,17.337
	v42.752h-19.98V-341.73h19.98C1937.903-341.73,1937.903-302.208,1937.903-302.208z"/>
<path style="fill:#FFFFFF;" d="M2043.692-245.059h-0.293c-3.82,5.732-9.255,10.139-22.185,10.139
	c-15.425,0-26.299-8.082-26.299-23.065c0-16.602,13.513-21.888,30.263-24.242c12.489-1.763,18.217-2.792,18.217-8.52
	c0-5.435-4.262-8.958-12.637-8.958c-9.404,0-13.955,3.378-14.545,10.576h-17.775c0.586-13.224,10.432-24.828,32.469-24.828
	c22.627,0,31.733,10.139,31.733,27.769v38.345c0,5.728,0.88,9.106,2.643,10.432v0.735h-19.245
	C2044.869-238.15,2044.134-241.677,2043.692-245.059z M2043.841-263.276v-11.316c-3.527,2.057-8.962,3.234-13.959,4.411
	c-10.432,2.35-15.573,4.7-15.573,11.753s4.7,9.548,11.753,9.548C2037.522-248.879,2043.841-255.929,2043.841-263.276z"/>
<path style="fill:#FFFFFF;" d="M2094.534-300.002h0.442c4.555-8.52,9.697-12.926,18.514-12.926c2.205,0,3.527,0.145,4.7,0.586
	v17.481h-0.442c-13.075-1.322-22.479,5.583-22.479,21.45v36.73h-19.98v-75.369h19.245
	C2094.534-312.049,2094.534-300.002,2094.534-300.002z"/>
<path style="fill:#FFFFFF;" d="M2123.191-312.049h10.432v-23.507h19.542v23.507h12.926v13.224h-12.926v39.96
	c0,5.584,3.085,7.496,7.491,7.496c2.499,0,5.877-0.149,5.877-0.149v14.694c0,0-4.551,0.293-12.489,0.293
	c-9.697,0-20.422-3.82-20.422-18.068v-44.23h-10.432V-312.049z"/>
<path style="fill:#FFFFFF;" d="M2171.972-274.439c0-22.334,15.132-39.667,37.168-39.667c24.238,0,37.168,18.51,37.168,45.395h-54.65
	c1.466,11.605,7.933,18.807,19.245,18.807c7.785,0,12.34-3.527,14.545-9.255h19.687c-2.792,13.372-14.694,24.684-34.083,24.684
	C2186.075-234.479,2171.972-251.964,2171.972-274.439z M2191.952-282.521h33.497c-0.591-9.552-6.905-16.16-16.015-16.16
	C2198.857-298.681,2193.716-292.362,2191.952-282.521z"/>
<path style="fill:#FFFFFF;" d="M2325.803-341.73h-19.98v38.787h-0.442c-4.113-6.319-10.725-11.167-21.302-11.167
	c-18.807,0-32.175,16.309-32.175,39.815c0,24.386,12.926,39.815,31.878,39.815c10.581,0,18.068-4.848,22.479-12.047h0.293v9.784
	l19.245-7.392v-97.596H2325.803z M2288.193-251.229c-10.283,0-16.011-8.52-16.011-23.065c0-13.959,5.583-23.651,16.602-23.651
	c12.782,0,17.481,9.693,17.481,24.093C2306.265-260.042,2300.095-251.229,2288.193-251.229z"/>
<path style="fill:#FFFFFF;" d="M2395.626-164.565c-0.413-0.624-0.809-1.255-1.21-1.891c-0.921-1.458-1.813-2.94-2.664-4.444
	c-0.285-0.5-0.582-0.987-0.859-1.491c-1.045-1.908-2.024-3.857-2.957-5.831c-0.302-0.64-0.586-1.293-0.875-1.941
	c-0.686-1.528-1.334-3.073-1.949-4.634c-0.26-0.657-0.529-1.305-0.776-1.97c-0.739-1.991-1.421-4.006-2.044-6.05
	c-0.252-0.822-0.471-1.652-0.706-2.482c-0.388-1.379-0.748-2.771-1.078-4.171c-0.145-0.611-0.339-1.21-0.471-1.825l-25.097-9.833
	c1.982,19.216,8.099,37.214,17.411,53.122c8.107-2.048,16.49-3.374,25.114-3.936
	C2396.848-162.818,2396.212-163.673,2395.626-164.565z"/>
<path style="fill:#E6E7E8;" d="M2325.766-136.004c0.533-1.949,0.888-3.994,0.888-6.215c0-17.63-13.959-21.153-26.592-23.8
	c-10.725-2.205-20.715-2.792-20.715-9.255c0-5.435,5.142-8.371,12.926-8.371c8.52,0,13.662,2.936,14.545,11.018h18.072
	c-1.47-15.132-12.489-24.973-32.324-24.973c-17.188,0-30.705,7.785-30.705,24.093c0,16.457,13.224,20.129,26.74,22.772
	c10.283,2.057,19.831,2.792,19.831,9.99c0,5.286-4.993,8.668-13.81,8.668c-8.962,0-15.132-3.82-16.457-12.489h-18.51
	c1.177,16.011,13.368,26.592,35.26,26.592c4.283,0,8.21-0.529,11.799-1.437l5.232-5.084
	C2316.325-128.719,2320.984-132.469,2325.766-136.004z"/>
<path style="fill:#FFFFFF;" d="M2499.697-356.861l-12.881-33.736v56.413c0.021,0,0.041,0,0.062,0c7.661,0,15.132,0.793,22.351,2.292
	l-0.054-0.145c14.487,3.007,27.868,8.962,39.629,17.106l20.674-13.492C2549.932-344.038,2525.954-354.33,2499.697-356.861z"/>
<path style="fill:#FFFFFF;" d="M2618.957-237.403c-2.445-25.886-12.451-49.554-27.653-68.968l-13.5,20.802
	c0.095,0.14,0.198,0.277,0.293,0.421c0.57,0.859,1.123,1.73,1.672,2.606c0.764,1.227,1.499,2.474,2.214,3.733
	c0.603,1.057,1.189,2.119,1.755,3.201c0.743,1.417,1.462,2.845,2.148,4.299c0.429,0.913,0.842,1.834,1.247,2.763
	c0.562,1.288,1.094,2.594,1.606,3.907c0.512,1.305,1,2.618,1.462,3.948c0.475,1.371,0.938,2.746,1.359,4.142
	c0.334,1.107,0.648,2.226,0.95,3.345c0.293,1.094,0.558,2.193,0.818,3.3c0.215,0.909,1.755,6.496,1.949,7.417l24.362,11.7
	L2618.957-237.403z"/>
<path style="fill:#FFFFFF;" d="M2618.276-203.811c0.409-2.606,0.855-5.199,1.111-7.855l33.737-12.881h-56.413
	c0,0.021,0,0.041,0,0.062c0,3.349-0.215,6.649-0.512,9.924c6.905,2.053,14.306,5.625,20.756,11.964L2618.276-203.811z"/>
<path style="fill:#E6E7E8;" d="M2445.939-157.4c31.49-20.554,61.984-40.456,65.87-42.991c5.088-7.83,89.708-138.212,89.708-138.212
	s-130.642,85.252-138.575,90.43c-3.481,5.323-30.812,47.08-56.211,85.883c0.12,0,0.231-0.012,0.351-0.012
	C2420.099-162.306,2433.157-160.626,2445.939-157.4z M2486.886-251.597c13.773-9.053,80.168-52.651,80.168-52.651
	s-52.064,80.18-52.238,80.267C2516.138-240.442,2504.331-253.183,2486.886-251.597z M2466.977-223.89
	c0.012-1.78,0.252-3.581,0.785-5.365c2.746-9.214,10.799-13.166,17.362-14.43c0.578-0.008,1.074,0.087,1.627,0.107
	c13.393,0.512,19.984,10.011,19.798,19.687c-0.174,8.966-6.087,18.006-17.89,19.972c-0.644,0.107-1.276,0.145-1.908,0.178
	C2475.86-203.146,2466.89-213.033,2466.977-223.89z"/>
<path style="fill:#E6E7E8;" d="M2533.495-170.942c0,0,14.248-17.135,27.372-12.166c13.112,4.964,20.984,20.071,9.123,35.888
	s-42.578,20.071-63.562,15.813c-20.984-4.258-49.876-13.079-61.435-16.119s-75.121-19.158-126.215,30.11
	c0,0,46.531-32.844,109.485-13.992c62.955,18.853,86.676,41.971,136.25,40.146c49.574-1.825,70.256-21.896,86.375-44.705
	c0,0-33.15,39.233-96.104,23.722c0,0,71.165-0.306,86.069-34.67s-5.476-51.4-16.424-61.435c0,0,7.632,9.66,9.061,25.279
	c0.942,10.283-2.309,21.764-13.926,30.379c0,0,5.249-22.635-4.77-37.222c-10.985-15.999-28.537-17.349-39.184-17.655
	C2564.964-207.875,2539.273-201.659,2533.495-170.942z"/>
<path style="fill:#FFFFFF;" d="M2380.374-247.822c2.59-11.877,7.169-22.995,13.277-33.084c0.091-0.149,0.178-0.297,0.264-0.446
	c0.867-1.421,1.759-2.821,2.688-4.196c0.107-0.161,0.223-0.314,0.334-0.475c1.59-2.325,3.267-4.576,5.026-6.769
	c0.475-0.595,0.95-1.189,1.437-1.776c0.814-0.97,1.635-1.924,2.482-2.866c0.735-0.822,1.491-1.619,2.251-2.416
	c1.078-1.127,2.172-2.238,3.296-3.32c1.024-0.991,2.065-1.966,3.126-2.916c0.706-0.628,1.417-1.243,2.135-1.85
	c1.193-1.012,2.412-1.995,3.646-2.953c0.512-0.396,1.004-0.809,1.524-1.198c1.697-1.272,3.444-2.478,5.22-3.651
	c0.624-0.413,1.255-0.809,1.891-1.21c1.458-0.921,2.94-1.813,4.444-2.664c0.5-0.285,0.987-0.582,1.491-0.859
	c1.908-1.045,3.857-2.024,5.831-2.957c0.64-0.301,1.292-0.586,1.941-0.876c1.528-0.686,3.073-1.334,4.634-1.949
	c0.657-0.26,1.305-0.529,1.97-0.776c1.991-0.739,4.006-1.421,6.05-2.044c0.822-0.252,1.652-0.471,2.482-0.706
	c1.379-0.388,2.771-0.747,4.171-1.078c0.611-0.145,1.21-0.335,1.825-0.471l9.833-25.097
	c-62.203,6.409-111.798,55.955-118.257,118.141l-34.636,13.224h57.235c0.041-7.83,0.917-15.458,2.519-22.813L2380.374-247.822z"/>
<path style="fill:#E6E7E8;" d="M1832.519-225.224h21.302v105.046h-21.302V-225.224z"/>
<path style="fill:#E6E7E8;" d="M1888.056-185.26h0.442c5.142-8.082,12.047-12.34,22.33-12.34c15.573,0,26.005,11.753,26.005,28.207
	v49.215h-19.98v-46.279c0-8.082-4.7-13.81-13.075-13.81c-8.817,0-15.28,7.054-15.28,17.337v42.752h-19.98v-75.369h19.542v10.287
	H1888.056z"/>
<path style="fill:#E6E7E8;" d="M1944.486-144.565h18.51c1.326,8.668,7.496,12.489,16.457,12.489c8.817,0,13.81-3.378,13.81-8.668
	c0-7.198-9.548-7.933-19.831-9.99c-13.517-2.643-26.74-6.314-26.74-22.772c0-16.309,13.517-24.093,30.705-24.093
	c19.835,0,30.854,9.841,32.324,24.973h-18.072c-0.88-8.082-6.021-11.018-14.545-11.018c-7.785,0-12.926,2.936-12.926,8.371
	c0,6.463,9.99,7.054,20.715,9.255c12.633,2.643,26.592,6.17,26.592,23.8c0,15.136-12.926,24.242-31.734,24.242
	C1957.854-117.973,1945.663-128.553,1944.486-144.565z"/>
<path style="fill:#E6E7E8;" d="M2020.45-225.224h19.98v17.923h-19.98V-225.224z M2020.45-195.543h19.98v75.369h-19.98V-195.543z"/>
<path style="fill:#E6E7E8;" d="M2051.303-117.973h19.835c1.615,4.7,5.873,8.375,15.132,8.375c11.316,0,16.746-5.435,16.746-15.722
	v-8.227h-0.442c-4.406,4.993-10.135,8.813-19.687,8.813c-16.746,0-33.199-13.224-33.199-35.995
	c0-22.479,13.513-36.875,32.613-36.875c9.404,0,16.309,3.671,20.864,9.99h0.293v-7.933h19.245v69.637
	c0,10.576-3.378,17.775-8.962,22.916c-6.314,5.877-16.011,8.52-27.178,8.52C2065.997-94.466,2053.36-103.279,2051.303-117.973z
	 M2104.049-161.167c0-11.018-5.877-20.422-17.923-20.422c-10.139,0-16.895,7.933-16.895,20.566c0,12.782,6.76,20.277,17.044,20.277
	C2098.908-140.745,2104.049-150.004,2104.049-161.167z"/>
<path style="fill:#E6E7E8;" d="M2155.626-185.702h0.442c5.435-7.933,11.605-11.902,21.888-11.902
	c15.573,0,26.005,11.753,26.005,28.207v49.219h-19.98v-46.279c0-8.082-4.7-13.81-13.075-13.81c-8.817,0-15.28,7.054-15.28,17.337
	v42.752h-19.98v-105.046h19.98C2155.626-225.224,2155.626-185.702,2155.626-185.702z"/>
<path style="fill:#E6E7E8;" d="M2210.441-195.543h10.432v-23.507h19.542v23.507h12.926v13.224h-12.926v39.96
	c0,5.583,3.085,7.496,7.491,7.496c2.499,0,5.877-0.149,5.877-0.149v14.694c0,0-4.551,0.293-12.489,0.293
	c-9.697,0-20.422-3.82-20.422-18.068v-44.23h-10.432V-195.543L2210.441-195.543z"/>
<g id="Logos_xA0__00000091693410734969431320000005518081648073404069_">
	<g id="NEW-GRP_00000104683146018457355230000011284739186152718993_">
		<path d="M491.539-662.379v-71.256h21.302v71.256c0,10.87,5.435,18.51,19.687,18.51c13.513,0,19.831-7.933,19.831-18.807v-70.958
			h21.302v71.256c0,22.479-13.81,35.553-40.695,35.553C505.791-626.826,491.539-639.608,491.539-662.379z"/>
		<path d="M606.88-693.671h0.442c5.142-8.082,12.047-12.34,22.33-12.34c15.573,0,26.005,11.753,26.005,28.207v49.215h-19.98v-46.279
			c0-8.082-4.7-13.81-13.075-13.81c-8.817,0-15.28,7.054-15.28,17.337v42.752h-19.98v-75.365h19.542v10.283H606.88z"/>
		<path d="M664.338-666.199c0-22.479,14.69-39.815,37.61-39.815c19.538,0,31.585,11.312,34.232,27.62h-19.542
			c-1.322-6.612-6.463-11.605-13.81-11.605c-12.051,0-18.221,9.255-18.221,23.8c0,14.252,5.728,23.8,17.923,23.8
			c8.082,0,13.81-4.262,15.132-12.782h19.245c-1.322,16.011-13.81,28.793-33.935,28.793
			C679.176-626.384,664.338-643.721,664.338-666.199z"/>
		<path d="M765.576-694.113h0.442c5.435-7.933,11.605-11.902,21.888-11.902c15.573,0,26.005,11.753,26.005,28.207v49.215h-19.98
			v-46.274c0-8.082-4.7-13.81-13.075-13.81c-8.817,0-15.28,7.054-15.28,17.337v42.752h-19.98v-105.046h19.98
			C765.576-733.635,765.576-694.113,765.576-694.113z"/>
		<path d="M871.365-636.964h-0.293c-3.82,5.732-9.255,10.139-22.185,10.139c-15.425,0-26.299-8.082-26.299-23.065
			c0-16.602,13.513-21.888,30.263-24.242c12.489-1.763,18.217-2.792,18.217-8.52c0-5.435-4.262-8.958-12.637-8.958
			c-9.404,0-13.955,3.378-14.545,10.576h-17.775c0.586-13.224,10.432-24.828,32.469-24.828c22.627,0,31.733,10.139,31.733,27.769
			v38.345c0,5.728,0.88,9.106,2.643,10.432v0.735h-19.245C872.542-630.055,871.807-633.582,871.365-636.964z M871.514-655.181
			v-11.316c-3.527,2.057-8.962,3.234-13.959,4.411c-10.432,2.35-15.573,4.7-15.573,11.753s4.7,9.548,11.753,9.548
			C865.195-640.785,871.514-647.834,871.514-655.181z"/>
		<path d="M922.207-691.907h0.442c4.555-8.52,9.697-12.926,18.514-12.926c2.205,0,3.527,0.145,4.7,0.586v17.482h-0.442
			c-13.075-1.322-22.479,5.583-22.479,21.45v36.73h-19.98v-75.369h19.245C922.207-703.954,922.207-691.907,922.207-691.907z"/>
		<path d="M950.864-703.954h10.432v-23.507h19.542v23.507h12.926v13.224h-12.926v39.96c0,5.583,3.085,7.496,7.491,7.496
			c2.499,0,5.877-0.149,5.877-0.149v14.694c0,0-4.551,0.293-12.489,0.293c-9.697,0-20.422-3.82-20.422-18.068v-44.23h-10.432
			V-703.954z"/>
		<path d="M999.645-666.344c0-22.334,15.132-39.667,37.168-39.667c24.238,0,37.168,18.51,37.168,45.395h-54.65
			c1.466,11.605,7.933,18.807,19.245,18.807c7.785,0,12.34-3.527,14.545-9.255h19.687c-2.792,13.372-14.694,24.684-34.083,24.684
			C1013.748-626.384,999.645-643.87,999.645-666.344z M1019.625-674.426h33.497c-0.591-9.552-6.905-16.16-16.016-16.16
			C1026.53-690.586,1021.388-684.267,1019.625-674.426z"/>
		<path d="M1153.476-733.635h-19.98v38.787h-0.442c-4.113-6.319-10.725-11.167-21.302-11.167c-18.807,0-32.175,16.309-32.175,39.815
			c0,24.386,12.926,39.815,31.878,39.815c10.58,0,18.068-4.848,22.478-12.047h0.293v9.784l19.245-7.392v-97.595H1153.476z
			 M1115.866-643.134c-10.283,0-16.011-8.52-16.011-23.065c0-13.959,5.583-23.651,16.602-23.651
			c12.782,0,17.481,9.693,17.481,24.093C1133.938-651.947,1127.768-643.134,1115.866-643.134z"/>
		<path d="M1223.299-556.47c-0.413-0.624-0.809-1.255-1.21-1.891c-0.921-1.458-1.813-2.94-2.664-4.444
			c-0.285-0.5-0.582-0.987-0.859-1.491c-1.045-1.908-2.024-3.857-2.957-5.831c-0.301-0.64-0.586-1.293-0.875-1.941
			c-0.686-1.528-1.334-3.073-1.949-4.634c-0.26-0.657-0.529-1.305-0.776-1.97c-0.739-1.991-1.421-4.006-2.044-6.05
			c-0.252-0.822-0.471-1.652-0.706-2.482c-0.388-1.379-0.747-2.771-1.078-4.171c-0.145-0.611-0.339-1.21-0.471-1.825l-25.097-9.833
			c1.982,19.216,8.099,37.214,17.411,53.122c8.107-2.048,16.49-3.374,25.113-3.936
			C1224.521-554.724,1223.885-555.578,1223.299-556.47z"/>
		<path d="M1153.439-527.909c0.533-1.949,0.888-3.994,0.888-6.215c0-17.63-13.959-21.153-26.592-23.8
			c-10.725-2.205-20.715-2.792-20.715-9.255c0-5.435,5.142-8.371,12.926-8.371c8.52,0,13.661,2.936,14.545,11.018h18.072
			c-1.47-15.132-12.489-24.973-32.324-24.973c-17.188,0-30.705,7.785-30.705,24.093c0,16.457,13.224,20.129,26.74,22.772
			c10.283,2.057,19.831,2.792,19.831,9.99c0,5.286-4.993,8.668-13.81,8.668c-8.962,0-15.132-3.82-16.457-12.489h-18.51
			c1.177,16.011,13.368,26.592,35.26,26.592c4.283,0,8.21-0.529,11.799-1.437l5.232-5.084
			C1143.998-520.624,1148.657-524.374,1153.439-527.909z"/>
		<g>
			<path d="M1327.37-748.767l-12.881-33.736v56.413c0.021,0,0.041,0,0.062,0c7.661,0,15.132,0.793,22.35,2.292l-0.054-0.145
				c14.487,3.006,27.868,8.962,39.63,17.106l20.674-13.492C1377.605-735.943,1353.627-746.235,1327.37-748.767z"/>
			<path d="M1446.63-629.308c-2.445-25.886-12.451-49.554-27.653-68.968l-13.5,20.802c0.095,0.14,0.198,0.277,0.293,0.421
				c0.57,0.859,1.123,1.73,1.673,2.606c0.764,1.227,1.499,2.474,2.214,3.733c0.603,1.057,1.189,2.119,1.755,3.201
				c0.743,1.417,1.462,2.845,2.147,4.299c0.43,0.913,0.842,1.834,1.247,2.763c0.562,1.289,1.094,2.594,1.607,3.907
				c0.512,1.305,0.999,2.618,1.462,3.948c0.475,1.371,0.938,2.746,1.359,4.142c0.334,1.107,0.648,2.226,0.95,3.345
				c0.293,1.094,0.557,2.193,0.818,3.3c0.215,0.909,1.755,6.496,1.949,7.417l24.362,11.7L1446.63-629.308z"/>
			<path d="M1445.949-595.716c0.409-2.606,0.855-5.199,1.111-7.855l33.736-12.881h-56.413c0,0.021,0,0.041,0,0.062
				c0,3.349-0.215,6.649-0.512,9.924c6.905,2.053,14.306,5.625,20.756,11.964L1445.949-595.716z"/>
			<path d="M1273.612-549.305c31.49-20.554,61.984-40.456,65.87-42.991c5.088-7.83,89.708-138.212,89.708-138.212
				s-130.642,85.252-138.576,90.43c-3.481,5.323-30.812,47.08-56.211,85.883c0.12,0,0.231-0.012,0.351-0.012
				C1247.772-554.211,1260.83-552.531,1273.612-549.305z M1394.731-696.153c0,0-52.064,80.18-52.238,80.267
				c1.322-16.461-10.486-29.202-27.926-27.616C1328.336-652.55,1394.731-696.153,1394.731-696.153z M1295.434-621.16
				c2.746-9.214,10.8-13.166,17.362-14.43c0.578-0.012,1.074,0.087,1.627,0.107c13.393,0.512,19.984,10.011,19.798,19.687
				c-0.169,8.966-6.087,18.006-17.89,19.972c-0.644,0.107-1.276,0.145-1.908,0.178c-10.89,0.595-19.864-9.292-19.774-20.149
				C1294.666-617.571,1294.905-619.372,1295.434-621.16z"/>
			<path d="M1361.168-562.847c0,0,14.248-17.135,27.372-12.166c13.112,4.964,20.984,20.071,9.123,35.888
				c-11.861,15.817-42.578,20.071-63.562,15.813c-20.984-4.258-49.876-13.079-61.435-16.119s-75.121-19.158-126.215,30.11
				c0,0,46.531-32.844,109.485-13.992c62.955,18.853,86.676,41.971,136.251,40.146c49.574-1.825,70.256-21.896,86.375-44.705
				c0,0-33.15,39.233-96.105,23.722c0,0,71.165-0.306,86.069-34.67c14.905-34.364-5.476-51.4-16.424-61.435
				c0,0,7.632,9.66,9.061,25.279c0.942,10.283-2.309,21.764-13.926,30.379c0,0,5.249-22.635-4.77-37.222
				c-10.985-15.999-28.537-17.349-39.184-17.655C1392.637-599.78,1366.946-593.564,1361.168-562.847z"/>
			<path d="M1208.047-639.727c2.589-11.877,7.169-22.995,13.277-33.084c0.091-0.149,0.178-0.297,0.264-0.446
				c0.867-1.421,1.759-2.821,2.688-4.196c0.107-0.161,0.223-0.314,0.334-0.475c1.59-2.325,3.267-4.576,5.026-6.769
				c0.475-0.595,0.95-1.189,1.437-1.776c0.814-0.971,1.635-1.924,2.482-2.866c0.735-0.822,1.491-1.619,2.251-2.416
				c1.078-1.127,2.172-2.238,3.296-3.32c1.024-0.991,2.065-1.966,3.126-2.916c0.706-0.628,1.417-1.243,2.135-1.85
				c1.194-1.012,2.412-1.995,3.647-2.953c0.512-0.396,1.004-0.809,1.524-1.198c1.697-1.272,3.444-2.478,5.22-3.651
				c0.624-0.413,1.255-0.809,1.891-1.21c1.458-0.921,2.94-1.813,4.444-2.664c0.5-0.285,0.987-0.582,1.491-0.859
				c1.908-1.045,3.857-2.024,5.831-2.957c0.64-0.301,1.293-0.586,1.941-0.875c1.528-0.686,3.073-1.334,4.634-1.949
				c0.657-0.26,1.305-0.529,1.97-0.776c1.991-0.739,4.006-1.421,6.05-2.044c0.822-0.252,1.652-0.471,2.482-0.706
				c1.379-0.388,2.771-0.747,4.171-1.078c0.611-0.145,1.21-0.334,1.825-0.471l9.833-25.097
				c-62.203,6.409-111.798,55.955-118.257,118.141l-34.637,13.224h57.235c0.041-7.83,0.917-15.458,2.519-22.813L1208.047-639.727z"
				/>
		</g>
		<path d="M660.192-617.129h21.302v105.046h-21.302V-617.129z"/>
		<path d="M715.729-577.165h0.442c5.142-8.082,12.047-12.34,22.33-12.34c15.573,0,26.005,11.753,26.005,28.207v49.215h-19.98
			v-46.279c0-8.082-4.7-13.81-13.075-13.81c-8.817,0-15.28,7.054-15.28,17.337v42.752h-19.98v-75.369h19.542v10.287H715.729z"/>
		<path d="M772.159-536.47h18.51c1.326,8.668,7.496,12.488,16.457,12.488c8.817,0,13.81-3.378,13.81-8.668
			c0-7.198-9.548-7.933-19.831-9.99c-13.517-2.643-26.74-6.314-26.74-22.772c0-16.309,13.517-24.093,30.705-24.093
			c19.835,0,30.854,9.841,32.324,24.973h-18.072c-0.88-8.082-6.021-11.018-14.545-11.018c-7.785,0-12.926,2.936-12.926,8.371
			c0,6.463,9.99,7.054,20.715,9.255c12.633,2.643,26.592,6.17,26.592,23.8c0,15.136-12.926,24.242-31.733,24.242
			C785.527-509.878,773.336-520.459,772.159-536.47z"/>
		<path d="M848.123-617.129h19.98v17.923h-19.98V-617.129z M848.123-587.448h19.98v75.369h-19.98V-587.448z"/>
		<path d="M878.976-509.878h19.835c1.615,4.7,5.873,8.375,15.132,8.375c11.316,0,16.746-5.435,16.746-15.722v-8.227h-0.442
			c-4.406,4.993-10.135,8.813-19.687,8.813c-16.746,0-33.2-13.224-33.2-35.995c0-22.479,13.513-36.875,32.613-36.875
			c9.404,0,16.309,3.671,20.864,9.99h0.293v-7.933h19.245v69.637c0,10.576-3.378,17.775-8.962,22.916
			c-6.314,5.877-16.011,8.52-27.178,8.52C893.67-486.371,881.033-495.184,878.976-509.878z M931.722-553.072
			c0-11.018-5.877-20.422-17.923-20.422c-10.139,0-16.895,7.933-16.895,20.566c0,12.782,6.76,20.277,17.044,20.277
			C926.581-532.65,931.722-541.909,931.722-553.072z"/>
		<path d="M983.299-577.607h0.442c5.435-7.933,11.605-11.902,21.888-11.902c15.573,0,26.005,11.753,26.005,28.207v49.219h-19.98
			v-46.279c0-8.082-4.7-13.81-13.075-13.81c-8.817,0-15.28,7.054-15.28,17.337v42.752h-19.98v-105.046h19.98
			C983.299-617.129,983.299-577.607,983.299-577.607z"/>
		<path d="M1038.114-587.448h10.432v-23.507h19.542v23.507h12.926v13.224h-12.926v39.96c0,5.583,3.085,7.496,7.491,7.496
			c2.499,0,5.877-0.149,5.877-0.149v14.694c0,0-4.551,0.293-12.489,0.293c-9.697,0-20.422-3.82-20.422-18.068v-44.23h-10.432
			V-587.448L1038.114-587.448z"/>
	</g>
</g>
<path style="fill:#FFFFFF;" d="M1223.299,244.281c-0.413-0.624-0.809-1.255-1.21-1.891c-0.921-1.458-1.813-2.94-2.664-4.444
	c-0.285-0.5-0.582-0.987-0.859-1.491c-1.045-1.908-2.024-3.857-2.957-5.831c-0.301-0.64-0.586-1.293-0.875-1.941
	c-0.686-1.528-1.334-3.073-1.949-4.634c-0.26-0.657-0.529-1.305-0.776-1.97c-0.739-1.991-1.421-4.006-2.044-6.05
	c-0.252-0.822-0.471-1.652-0.706-2.482c-0.388-1.379-0.747-2.771-1.078-4.171c-0.145-0.611-0.339-1.21-0.471-1.825l-25.097-9.833
	c1.982,19.216,8.099,37.214,17.411,53.122c8.107-2.048,16.49-3.374,25.113-3.936
	C1224.521,246.028,1223.885,245.173,1223.299,244.281z"/>
<path style="fill:#FFFFFF;" d="M1327.37,51.985l-12.881-33.736v56.413c0.021,0,0.041,0,0.062,0c7.661,0,15.132,0.793,22.35,2.292
	l-0.054-0.145c14.487,3.007,27.868,8.962,39.63,17.106l20.674-13.492C1377.605,64.808,1353.627,54.516,1327.37,51.985z"/>
<path style="fill:#FFFFFF;" d="M1446.63,171.444c-2.445-25.886-12.451-49.554-27.653-68.968l-13.5,20.802
	c0.095,0.14,0.198,0.277,0.293,0.421c0.57,0.859,1.123,1.73,1.673,2.606c0.764,1.227,1.499,2.474,2.214,3.733
	c0.603,1.057,1.189,2.119,1.755,3.201c0.743,1.417,1.462,2.845,2.147,4.299c0.43,0.913,0.842,1.834,1.247,2.763
	c0.562,1.288,1.094,2.594,1.607,3.907c0.512,1.305,0.999,2.618,1.462,3.948c0.475,1.371,0.938,2.746,1.359,4.142
	c0.334,1.107,0.648,2.226,0.95,3.345c0.293,1.094,0.557,2.193,0.818,3.3c0.215,0.909,1.755,6.496,1.949,7.417l24.362,11.7
	L1446.63,171.444z"/>
<path style="fill:#FFFFFF;" d="M1445.949,205.035c0.409-2.606,0.855-5.199,1.111-7.855l33.736-12.881h-56.413
	c0,0.021,0,0.041,0,0.062c0,3.349-0.215,6.649-0.512,9.924c6.905,2.053,14.306,5.625,20.756,11.964L1445.949,205.035z"/>
<path d="M1273.612,251.446c31.49-20.554,61.984-40.456,65.87-42.991c5.088-7.83,89.708-138.212,89.708-138.212
	s-130.642,85.252-138.576,90.43c-3.481,5.323-30.812,47.08-56.211,85.883c0.12,0,0.231-0.012,0.351-0.012
	C1247.772,246.54,1260.83,248.221,1273.612,251.446z M1394.731,104.599c0,0-52.064,80.18-52.238,80.267
	c1.322-16.461-10.486-29.202-27.926-27.616C1328.336,148.201,1394.731,104.599,1394.731,104.599z M1295.434,179.592
	c2.746-9.214,10.8-13.166,17.362-14.43c0.578-0.012,1.074,0.087,1.627,0.107c13.393,0.512,19.984,10.011,19.798,19.687
	c-0.169,8.966-6.087,18.006-17.89,19.972c-0.644,0.107-1.276,0.145-1.908,0.178c-10.89,0.595-19.864-9.292-19.774-20.149
	C1294.666,183.18,1294.905,181.38,1295.434,179.592z"/>
<path d="M1361.168,237.904c0,0,14.248-17.135,27.372-12.166c13.112,4.964,20.984,20.071,9.123,35.888
	c-11.861,15.817-42.578,20.071-63.562,15.813c-20.984-4.258-49.876-13.079-61.435-16.119c-11.559-3.04-75.121-19.158-126.215,30.11
	c0,0,46.531-32.844,109.485-13.992c62.955,18.853,86.676,41.971,136.251,40.146c49.574-1.825,70.256-21.896,86.375-44.705
	c0,0-33.15,39.233-96.105,23.722c0,0,71.165-0.306,86.069-34.67c14.905-34.364-5.476-51.4-16.424-61.435
	c0,0,7.632,9.66,9.061,25.279c0.942,10.283-2.309,21.764-13.926,30.379c0,0,5.249-22.635-4.77-37.222
	c-10.985-15.999-28.537-17.349-39.184-17.655C1392.637,200.972,1366.946,207.187,1361.168,237.904z"/>
<path style="fill:#FFFFFF;" d="M1208.047,161.024c2.589-11.877,7.169-22.995,13.277-33.084c0.091-0.149,0.178-0.297,0.264-0.446
	c0.867-1.421,1.759-2.821,2.688-4.196c0.107-0.161,0.223-0.314,0.334-0.475c1.59-2.325,3.267-4.576,5.026-6.769
	c0.475-0.595,0.95-1.189,1.437-1.776c0.814-0.971,1.635-1.924,2.482-2.866c0.735-0.822,1.491-1.619,2.251-2.416
	c1.078-1.127,2.172-2.238,3.296-3.32c1.024-0.991,2.065-1.966,3.126-2.916c0.706-0.628,1.417-1.243,2.135-1.85
	c1.194-1.012,2.412-1.995,3.647-2.953c0.512-0.396,1.004-0.809,1.524-1.198c1.697-1.272,3.444-2.478,5.22-3.651
	c0.624-0.413,1.255-0.809,1.891-1.21c1.458-0.921,2.94-1.813,4.444-2.664c0.5-0.285,0.987-0.582,1.491-0.859
	c1.908-1.045,3.857-2.024,5.831-2.957c0.64-0.301,1.293-0.586,1.941-0.876c1.528-0.686,3.073-1.334,4.634-1.949
	c0.657-0.26,1.305-0.529,1.97-0.776c1.991-0.739,4.006-1.421,6.05-2.044c0.822-0.252,1.652-0.471,2.482-0.706
	c1.379-0.388,2.771-0.747,4.171-1.078c0.611-0.145,1.21-0.335,1.825-0.471l9.833-25.097
	c-62.203,6.409-111.798,55.955-118.257,118.141l-34.637,13.224h57.235c0.041-7.83,0.917-15.458,2.519-22.813L1208.047,161.024z"/>
<path style="fill:#FFFFFF;" d="M491.539-270.474v-71.256h21.302v71.256c0,10.87,5.435,18.51,19.687,18.51
	c13.513,0,19.831-7.933,19.831-18.807v-70.958h21.302v71.256c0,22.479-13.81,35.553-40.695,35.553
	C505.791-234.921,491.539-247.702,491.539-270.474z"/>
<path style="fill:#FFFFFF;" d="M606.88-301.766h0.442c5.142-8.082,12.047-12.34,22.33-12.34c15.573,0,26.005,11.753,26.005,28.207
	v49.215h-19.98v-46.279c0-8.082-4.7-13.81-13.075-13.81c-8.817,0-15.28,7.054-15.28,17.337v42.752h-19.98v-75.365h19.542v10.283
	H606.88z"/>
<path style="fill:#FFFFFF;" d="M664.338-274.294c0-22.479,14.69-39.815,37.61-39.815c19.538,0,31.585,11.312,34.232,27.62h-19.542
	c-1.322-6.612-6.463-11.605-13.81-11.605c-12.051,0-18.221,9.255-18.221,23.8c0,14.252,5.728,23.8,17.923,23.8
	c8.082,0,13.81-4.262,15.132-12.782h19.245c-1.322,16.011-13.81,28.793-33.935,28.793
	C679.176-234.479,664.338-251.816,664.338-274.294z"/>
<path style="fill:#FFFFFF;" d="M765.576-302.208h0.442c5.435-7.933,11.605-11.902,21.888-11.902
	c15.573,0,26.005,11.753,26.005,28.207v49.215h-19.98v-46.274c0-8.082-4.7-13.81-13.075-13.81c-8.817,0-15.28,7.054-15.28,17.337
	v42.752h-19.98V-341.73h19.98C765.576-341.73,765.576-302.208,765.576-302.208z"/>
<path style="fill:#FFFFFF;" d="M871.365-245.059h-0.293c-3.82,5.732-9.255,10.139-22.185,10.139
	c-15.425,0-26.299-8.082-26.299-23.065c0-16.602,13.513-21.888,30.263-24.242c12.489-1.763,18.217-2.792,18.217-8.52
	c0-5.435-4.262-8.958-12.637-8.958c-9.404,0-13.955,3.378-14.545,10.576h-17.775c0.586-13.224,10.432-24.828,32.469-24.828
	c22.627,0,31.733,10.139,31.733,27.769v38.345c0,5.728,0.88,9.106,2.643,10.432v0.735h-19.245
	C872.542-238.15,871.807-241.677,871.365-245.059z M871.514-263.276v-11.316c-3.527,2.057-8.962,3.234-13.959,4.411
	c-10.432,2.35-15.573,4.7-15.573,11.753s4.7,9.548,11.753,9.548C865.195-248.879,871.514-255.929,871.514-263.276z"/>
<path style="fill:#FFFFFF;" d="M922.207-300.002h0.442c4.555-8.52,9.697-12.926,18.514-12.926c2.205,0,3.527,0.145,4.7,0.586v17.481
	h-0.442c-13.075-1.322-22.479,5.583-22.479,21.45v36.73h-19.98v-75.369h19.245C922.207-312.049,922.207-300.002,922.207-300.002z"/>
<path style="fill:#FFFFFF;" d="M950.864-312.049h10.432v-23.507h19.542v23.507h12.926v13.224h-12.926v39.96
	c0,5.584,3.085,7.496,7.491,7.496c2.499,0,5.877-0.149,5.877-0.149v14.694c0,0-4.551,0.293-12.489,0.293
	c-9.697,0-20.422-3.82-20.422-18.068v-44.23h-10.432V-312.049z"/>
<path style="fill:#FFFFFF;" d="M999.645-274.439c0-22.334,15.132-39.667,37.168-39.667c24.238,0,37.168,18.51,37.168,45.395h-54.65
	c1.466,11.605,7.933,18.807,19.245,18.807c7.785,0,12.34-3.527,14.545-9.255h19.687c-2.792,13.372-14.694,24.684-34.083,24.684
	C1013.748-234.479,999.645-251.964,999.645-274.439z M1019.625-282.521h33.497c-0.591-9.552-6.905-16.16-16.016-16.16
	C1026.53-298.681,1021.388-292.362,1019.625-282.521z"/>
<path style="fill:#FFFFFF;" d="M1153.476-341.73h-19.98v38.787h-0.442c-4.113-6.319-10.725-11.167-21.302-11.167
	c-18.807,0-32.175,16.309-32.175,39.815c0,24.386,12.926,39.815,31.878,39.815c10.58,0,18.068-4.848,22.478-12.047h0.293v9.784
	l19.245-7.392v-97.596H1153.476z M1115.866-251.229c-10.283,0-16.011-8.52-16.011-23.065c0-13.959,5.583-23.651,16.602-23.651
	c12.782,0,17.481,9.693,17.481,24.093C1133.938-260.042,1127.768-251.229,1115.866-251.229z"/>
<path style="fill:#FFFFFF;" d="M1223.299-164.565c-0.413-0.624-0.809-1.255-1.21-1.891c-0.921-1.458-1.813-2.94-2.664-4.444
	c-0.285-0.5-0.582-0.987-0.859-1.491c-1.045-1.908-2.024-3.857-2.957-5.831c-0.301-0.64-0.586-1.293-0.875-1.941
	c-0.686-1.528-1.334-3.073-1.949-4.634c-0.26-0.657-0.529-1.305-0.776-1.97c-0.739-1.991-1.421-4.006-2.044-6.05
	c-0.252-0.822-0.471-1.652-0.706-2.482c-0.388-1.379-0.747-2.771-1.078-4.171c-0.145-0.611-0.339-1.21-0.471-1.825l-25.097-9.833
	c1.982,19.216,8.099,37.214,17.411,53.122c8.107-2.048,16.49-3.374,25.113-3.936
	C1224.521-162.818,1223.885-163.673,1223.299-164.565z"/>
<path d="M1153.439-136.004c0.533-1.949,0.888-3.994,0.888-6.215c0-17.63-13.959-21.153-26.592-23.8
	c-10.725-2.205-20.715-2.792-20.715-9.255c0-5.435,5.142-8.371,12.926-8.371c8.52,0,13.661,2.936,14.545,11.018h18.072
	c-1.47-15.132-12.489-24.973-32.324-24.973c-17.188,0-30.705,7.785-30.705,24.093c0,16.457,13.224,20.129,26.74,22.772
	c10.283,2.057,19.831,2.792,19.831,9.99c0,5.286-4.993,8.668-13.81,8.668c-8.962,0-15.132-3.82-16.457-12.489h-18.51
	c1.177,16.011,13.368,26.592,35.26,26.592c4.283,0,8.21-0.529,11.799-1.437l5.232-5.084
	C1143.998-128.719,1148.657-132.469,1153.439-136.004z"/>
<path style="fill:#FFFFFF;" d="M1327.37-356.861l-12.881-33.736v56.413c0.021,0,0.041,0,0.062,0c7.661,0,15.132,0.793,22.35,2.292
	l-0.054-0.145c14.487,3.007,27.868,8.962,39.63,17.106l20.674-13.492C1377.605-344.038,1353.627-354.33,1327.37-356.861z"/>
<path style="fill:#FFFFFF;" d="M1446.63-237.403c-2.445-25.886-12.451-49.554-27.653-68.968l-13.5,20.802
	c0.095,0.14,0.198,0.277,0.293,0.421c0.57,0.859,1.123,1.73,1.673,2.606c0.764,1.227,1.499,2.474,2.214,3.733
	c0.603,1.057,1.189,2.119,1.755,3.201c0.743,1.417,1.462,2.845,2.147,4.299c0.43,0.913,0.842,1.834,1.247,2.763
	c0.562,1.288,1.094,2.594,1.607,3.907c0.512,1.305,0.999,2.618,1.462,3.948c0.475,1.371,0.938,2.746,1.359,4.142
	c0.334,1.107,0.648,2.226,0.95,3.345c0.293,1.094,0.557,2.193,0.818,3.3c0.215,0.909,1.755,6.496,1.949,7.417l24.362,11.7
	L1446.63-237.403z"/>
<path style="fill:#FFFFFF;" d="M1445.949-203.811c0.409-2.606,0.855-5.199,1.111-7.855l33.736-12.881h-56.413
	c0,0.021,0,0.041,0,0.062c0,3.349-0.215,6.649-0.512,9.924c6.905,2.053,14.306,5.625,20.756,11.964L1445.949-203.811z"/>
<path d="M1273.612-157.4c31.49-20.554,61.984-40.456,65.87-42.991c5.088-7.83,89.708-138.212,89.708-138.212
	s-130.642,85.252-138.576,90.43c-3.481,5.323-30.812,47.08-56.211,85.883c0.12,0,0.231-0.012,0.351-0.012
	C1247.772-162.306,1260.83-160.626,1273.612-157.4z M1314.559-251.597c13.773-9.053,80.168-52.651,80.168-52.651
	s-52.064,80.18-52.238,80.267C1343.811-240.442,1332.003-253.183,1314.559-251.597z M1294.649-223.89
	c0.012-1.78,0.252-3.581,0.785-5.365c2.746-9.214,10.799-13.166,17.362-14.43c0.578-0.008,1.074,0.087,1.627,0.107
	c13.393,0.512,19.984,10.011,19.798,19.687c-0.173,8.966-6.087,18.006-17.89,19.972c-0.644,0.107-1.276,0.145-1.908,0.178
	C1303.533-203.146,1294.563-213.033,1294.649-223.89z"/>
<path d="M1361.168-170.942c0,0,14.248-17.135,27.372-12.166c13.112,4.964,20.984,20.071,9.123,35.888
	c-11.861,15.817-42.578,20.071-63.562,15.813c-20.984-4.258-49.876-13.079-61.435-16.119s-75.121-19.158-126.215,30.11
	c0,0,46.531-32.844,109.485-13.992c62.955,18.853,86.676,41.971,136.251,40.146c49.574-1.825,70.256-21.896,86.375-44.705
	c0,0-33.15,39.233-96.105,23.722c0,0,71.165-0.306,86.069-34.67c14.905-34.364-5.476-51.4-16.424-61.435
	c0,0,7.632,9.66,9.061,25.279c0.942,10.283-2.309,21.764-13.926,30.379c0,0,5.249-22.635-4.77-37.222
	c-10.985-15.999-28.537-17.349-39.184-17.655C1392.637-207.875,1366.946-201.659,1361.168-170.942z"/>
<path style="fill:#FFFFFF;" d="M1208.047-247.822c2.589-11.877,7.169-22.995,13.277-33.084c0.091-0.149,0.178-0.297,0.264-0.446
	c0.867-1.421,1.759-2.821,2.688-4.196c0.107-0.161,0.223-0.314,0.334-0.475c1.59-2.325,3.267-4.576,5.026-6.769
	c0.475-0.595,0.95-1.189,1.437-1.776c0.814-0.97,1.635-1.924,2.482-2.866c0.735-0.822,1.491-1.619,2.251-2.416
	c1.078-1.127,2.172-2.238,3.296-3.32c1.024-0.991,2.065-1.966,3.126-2.916c0.706-0.628,1.417-1.243,2.135-1.85
	c1.194-1.012,2.412-1.995,3.647-2.953c0.512-0.396,1.004-0.809,1.524-1.198c1.697-1.272,3.444-2.478,5.22-3.651
	c0.624-0.413,1.255-0.809,1.891-1.21c1.458-0.921,2.94-1.813,4.444-2.664c0.5-0.285,0.987-0.582,1.491-0.859
	c1.908-1.045,3.857-2.024,5.831-2.957c0.64-0.301,1.293-0.586,1.941-0.876c1.528-0.686,3.073-1.334,4.634-1.949
	c0.657-0.26,1.305-0.529,1.97-0.776c1.991-0.739,4.006-1.421,6.05-2.044c0.822-0.252,1.652-0.471,2.482-0.706
	c1.379-0.388,2.771-0.747,4.171-1.078c0.611-0.145,1.21-0.335,1.825-0.471l9.833-25.097
	c-62.203,6.409-111.798,55.955-118.257,118.141l-34.637,13.224h57.235c0.041-7.83,0.917-15.458,2.519-22.813L1208.047-247.822z"/>
<path d="M660.192-225.224h21.302v105.046h-21.302V-225.224z"/>
<path d="M715.729-185.26h0.442c5.142-8.082,12.047-12.34,22.33-12.34c15.573,0,26.005,11.753,26.005,28.207v49.215h-19.98v-46.279
	c0-8.082-4.7-13.81-13.075-13.81c-8.817,0-15.28,7.054-15.28,17.337v42.752h-19.98v-75.369h19.542v10.287H715.729z"/>
<path d="M772.159-144.565h18.51c1.326,8.668,7.496,12.489,16.457,12.489c8.817,0,13.81-3.378,13.81-8.668
	c0-7.198-9.548-7.933-19.831-9.99c-13.517-2.643-26.74-6.314-26.74-22.772c0-16.309,13.517-24.093,30.705-24.093
	c19.835,0,30.854,9.841,32.324,24.973h-18.072c-0.88-8.082-6.021-11.018-14.545-11.018c-7.785,0-12.926,2.936-12.926,8.371
	c0,6.463,9.99,7.054,20.715,9.255c12.633,2.643,26.592,6.17,26.592,23.8c0,15.136-12.926,24.242-31.733,24.242
	C785.527-117.973,773.336-128.553,772.159-144.565z"/>
<path d="M848.123-225.224h19.98v17.923h-19.98V-225.224z M848.123-195.543h19.98v75.369h-19.98V-195.543z"/>
<path d="M878.976-117.973h19.835c1.615,4.7,5.873,8.375,15.132,8.375c11.316,0,16.746-5.435,16.746-15.722v-8.227h-0.442
	c-4.406,4.993-10.135,8.813-19.687,8.813c-16.746,0-33.2-13.224-33.2-35.995c0-22.479,13.513-36.875,32.613-36.875
	c9.404,0,16.309,3.671,20.864,9.99h0.293v-7.933h19.245v69.637c0,10.576-3.378,17.775-8.962,22.916
	c-6.314,5.877-16.011,8.52-27.178,8.52C893.67-94.466,881.033-103.279,878.976-117.973z M931.722-161.167
	c0-11.018-5.877-20.422-17.923-20.422c-10.139,0-16.895,7.933-16.895,20.566c0,12.782,6.76,20.277,17.044,20.277
	C926.581-140.745,931.722-150.004,931.722-161.167z"/>
<path d="M983.299-185.702h0.442c5.435-7.933,11.605-11.902,21.888-11.902c15.573,0,26.005,11.753,26.005,28.207v49.219h-19.98
	v-46.279c0-8.082-4.7-13.81-13.075-13.81c-8.817,0-15.28,7.054-15.28,17.337v42.752h-19.98v-105.046h19.98
	C983.299-225.224,983.299-185.702,983.299-185.702z"/>
<path d="M1038.114-195.543h10.432v-23.507h19.542v23.507h12.926v13.224h-12.926v39.96c0,5.583,3.085,7.496,7.491,7.496
	c2.499,0,5.877-0.149,5.877-0.149v14.694c0,0-4.551,0.293-12.489,0.293c-9.697,0-20.422-3.82-20.422-18.068v-44.23h-10.432V-195.543
	L1038.114-195.543z"/>
<g id="Logos_xA0__00000143583273242341205790000008110629481516620698_">
	<g id="NEW-GRP_00000053503974469961691950000005763997222338438030_">
		<path style="fill:#132C4C;" d="M-633.353-662.379v-71.256h21.302v71.256c0,10.87,5.435,18.51,19.687,18.51
			c13.513,0,19.831-7.933,19.831-18.807v-70.958h21.302v71.256c0,22.479-13.81,35.553-40.695,35.553
			C-619.101-626.826-633.353-639.608-633.353-662.379z"/>
		<path style="fill:#132C4C;" d="M-518.012-693.671h0.442c5.142-8.082,12.047-12.34,22.33-12.34
			c15.574,0,26.005,11.753,26.005,28.207v49.215h-19.98v-46.279c0-8.082-4.7-13.81-13.075-13.81c-8.817,0-15.28,7.054-15.28,17.337
			v42.752h-19.98v-75.365h19.542v10.283H-518.012z"/>
		<path style="fill:#132C4C;" d="M-460.554-666.199c0-22.479,14.69-39.815,37.61-39.815c19.538,0,31.585,11.312,34.232,27.62
			h-19.542c-1.322-6.612-6.463-11.605-13.81-11.605c-12.051,0-18.221,9.255-18.221,23.8c0,14.252,5.728,23.8,17.923,23.8
			c8.082,0,13.81-4.262,15.132-12.782h19.245c-1.322,16.011-13.81,28.793-33.935,28.793
			C-445.715-626.384-460.554-643.721-460.554-666.199z"/>
		<path style="fill:#132C4C;" d="M-359.316-694.113h0.442c5.435-7.933,11.605-11.902,21.888-11.902
			c15.574,0,26.005,11.753,26.005,28.207v49.215h-19.98v-46.274c0-8.082-4.7-13.81-13.075-13.81c-8.817,0-15.28,7.054-15.28,17.337
			v42.752h-19.98v-105.046h19.98C-359.316-733.635-359.316-694.113-359.316-694.113z"/>
		<path style="fill:#132C4C;" d="M-253.527-636.964h-0.293c-3.82,5.732-9.255,10.139-22.185,10.139
			c-15.425,0-26.299-8.082-26.299-23.065c0-16.602,13.513-21.888,30.263-24.242c12.489-1.763,18.217-2.792,18.217-8.52
			c0-5.435-4.262-8.958-12.637-8.958c-9.404,0-13.955,3.378-14.545,10.576h-17.775c0.586-13.224,10.432-24.828,32.469-24.828
			c22.627,0,31.733,10.139,31.733,27.769v38.345c0,5.728,0.88,9.106,2.643,10.432v0.735h-19.245
			C-252.35-630.055-253.085-633.582-253.527-636.964z M-253.378-655.181v-11.316c-3.527,2.057-8.962,3.234-13.959,4.411
			c-10.432,2.35-15.573,4.7-15.573,11.753s4.7,9.548,11.753,9.548C-259.697-640.785-253.378-647.834-253.378-655.181z"/>
		<path style="fill:#132C4C;" d="M-202.685-691.907h0.442c4.555-8.52,9.697-12.926,18.514-12.926c2.205,0,3.527,0.145,4.7,0.586
			v17.482h-0.442c-13.075-1.322-22.479,5.583-22.479,21.45v36.73h-19.98v-75.369h19.245
			C-202.685-703.954-202.685-691.907-202.685-691.907z"/>
		<path style="fill:#132C4C;" d="M-174.028-703.954h10.432v-23.507h19.542v23.507h12.926v13.224h-12.926v39.96
			c0,5.583,3.085,7.496,7.491,7.496c2.499,0,5.877-0.149,5.877-0.149v14.694c0,0-4.551,0.293-12.489,0.293
			c-9.697,0-20.422-3.82-20.422-18.068v-44.23h-10.432V-703.954z"/>
		<path style="fill:#132C4C;" d="M-125.247-666.344c0-22.334,15.132-39.667,37.168-39.667c24.238,0,37.168,18.51,37.168,45.395
			h-54.65c1.466,11.605,7.933,18.807,19.245,18.807c7.785,0,12.34-3.527,14.545-9.255h19.687
			c-2.792,13.372-14.694,24.684-34.083,24.684C-111.144-626.384-125.247-643.87-125.247-666.344z M-105.267-674.426h33.497
			c-0.591-9.552-6.905-16.16-16.015-16.16C-98.362-690.586-103.503-684.267-105.267-674.426z"/>
		<path style="fill:none;" d="M-8.435-689.851c-11.018,0-16.602,9.693-16.602,23.651c0,14.545,5.728,23.065,16.011,23.065
			c11.902,0,18.072-8.817,18.072-22.627C9.046-680.158,4.346-689.851-8.435-689.851z"/>
		<path style="fill:#132C4C;" d="M28.584-733.635H8.604v38.787H8.162c-4.113-6.319-10.725-11.167-21.302-11.167
			c-18.807,0-32.175,16.309-32.175,39.815c0,24.386,12.926,39.815,31.878,39.815c10.581,0,18.068-4.848,22.478-12.047h0.293v9.784
			l19.245-7.392v-97.595H28.584z M-9.026-643.134c-10.283,0-16.011-8.52-16.011-23.065c0-13.959,5.584-23.651,16.602-23.651
			c12.782,0,17.481,9.693,17.481,24.093C9.046-651.947,2.876-643.134-9.026-643.134z"/>
		<path style="fill:#132C4C;" d="M98.407-556.47c-0.413-0.624-0.809-1.255-1.21-1.891c-0.921-1.458-1.813-2.94-2.664-4.444
			c-0.285-0.5-0.582-0.987-0.859-1.491c-1.045-1.908-2.024-3.857-2.957-5.831c-0.301-0.64-0.586-1.293-0.876-1.941
			c-0.686-1.528-1.334-3.073-1.949-4.634c-0.26-0.657-0.529-1.305-0.776-1.97c-0.739-1.991-1.421-4.006-2.044-6.05
			c-0.252-0.822-0.471-1.652-0.706-2.482c-0.388-1.379-0.747-2.771-1.078-4.171c-0.145-0.611-0.339-1.21-0.471-1.825l-25.097-9.833
			c1.982,19.216,8.099,37.214,17.411,53.122c8.107-2.048,16.49-3.374,25.113-3.936C99.629-554.724,98.993-555.578,98.407-556.47z"/>
		<path style="fill:#1D76BB;" d="M28.547-527.909c0.533-1.949,0.888-3.994,0.888-6.215c0-17.63-13.959-21.153-26.592-23.8
			c-10.725-2.205-20.715-2.792-20.715-9.255c0-5.435,5.142-8.371,12.926-8.371c8.52,0,13.661,2.936,14.545,11.018h18.072
			c-1.47-15.132-12.489-24.973-32.324-24.973c-17.188,0-30.705,7.785-30.705,24.093c0,16.457,13.224,20.129,26.741,22.772
			c10.283,2.057,19.831,2.792,19.831,9.99c0,5.286-4.993,8.668-13.81,8.668c-8.962,0-15.132-3.82-16.457-12.489h-18.51
			c1.177,16.011,13.368,26.592,35.26,26.592c4.283,0,8.21-0.529,11.799-1.437l5.232-5.084
			C19.106-520.624,23.765-524.374,28.547-527.909z"/>
		<g>
			<path style="fill:#132C4C;" d="M202.478-748.767l-12.881-33.736v56.413c0.021,0,0.041,0,0.062,0
				c7.661,0,15.132,0.793,22.35,2.292l-0.054-0.145c14.487,3.006,27.868,8.962,39.63,17.106l20.674-13.492
				C252.713-735.943,228.735-746.235,202.478-748.767z"/>
			<path style="fill:#132C4C;" d="M321.738-629.308c-2.445-25.886-12.451-49.554-27.653-68.968l-13.5,20.802
				c0.095,0.14,0.198,0.277,0.293,0.421c0.57,0.859,1.123,1.73,1.673,2.606c0.764,1.227,1.499,2.474,2.214,3.733
				c0.603,1.057,1.189,2.119,1.755,3.201c0.743,1.417,1.462,2.845,2.148,4.299c0.43,0.913,0.842,1.834,1.247,2.763
				c0.562,1.289,1.094,2.594,1.607,3.907c0.512,1.305,0.999,2.618,1.462,3.948c0.475,1.371,0.937,2.746,1.359,4.142
				c0.334,1.107,0.648,2.226,0.95,3.345c0.293,1.094,0.557,2.193,0.818,3.3c0.215,0.909,1.755,6.496,1.949,7.417l24.362,11.7
				L321.738-629.308z"/>
			<path style="fill:#132C4C;" d="M321.057-595.716c0.409-2.606,0.855-5.199,1.111-7.855l33.736-12.881h-56.413
				c0,0.021,0,0.041,0,0.062c0,3.349-0.215,6.649-0.512,9.924c6.905,2.053,14.306,5.625,20.756,11.964L321.057-595.716z"/>
			<path style="fill:none;" d="M189.531-595.646c0.632-0.033,1.264-0.07,1.908-0.178c11.803-1.966,17.717-11.006,17.89-19.972
				c0.186-9.676-6.405-19.175-19.798-19.687c-0.553-0.021-1.049-0.116-1.627-0.107c-6.562,1.264-14.615,5.216-17.362,14.43
				c-0.533,1.784-0.772,3.585-0.785,5.365C169.671-604.938,178.641-595.051,189.531-595.646z"/>
			<path style="fill:none;" d="M217.597-615.886c0.173-0.087,52.238-80.267,52.238-80.267s-66.395,43.598-80.168,52.651
				C207.112-645.088,218.919-632.347,217.597-615.886z"/>
			<path style="fill:#1D76BB;" d="M148.72-549.305c31.49-20.554,61.984-40.456,65.87-42.991
				c5.088-7.83,89.708-138.212,89.708-138.212s-130.642,85.252-138.576,90.43c-3.481,5.323-30.812,47.08-56.211,85.883
				c0.12,0,0.231-0.012,0.351-0.012C122.88-554.211,135.939-552.531,148.72-549.305z M269.839-696.153
				c0,0-52.064,80.18-52.238,80.267c1.322-16.461-10.486-29.202-27.926-27.616C203.444-652.55,269.839-696.153,269.839-696.153z
				 M170.542-621.16c2.746-9.214,10.799-13.166,17.362-14.43c0.578-0.012,1.074,0.087,1.627,0.107
				c13.393,0.512,19.984,10.011,19.798,19.687c-0.169,8.966-6.087,18.006-17.89,19.972c-0.644,0.107-1.276,0.145-1.908,0.178
				c-10.89,0.595-19.864-9.292-19.773-20.149C169.774-617.571,170.014-619.372,170.542-621.16z"/>
			<path style="fill:#1D76BB;" d="M236.276-562.847c0,0,14.248-17.135,27.372-12.166c13.112,4.964,20.984,20.071,9.123,35.888
				s-42.578,20.071-63.562,15.813c-20.984-4.258-49.876-13.079-61.435-16.119c-11.559-3.04-75.121-19.158-126.215,30.11
				c0,0,46.53-32.844,109.485-13.992c62.955,18.853,86.676,41.971,136.251,40.146c49.574-1.825,70.256-21.896,86.375-44.705
				c0,0-33.15,39.233-96.105,23.722c0,0,71.165-0.306,86.069-34.67c14.904-34.364-5.476-51.4-16.424-61.435
				c0,0,7.632,9.66,9.061,25.279c0.942,10.283-2.309,21.764-13.926,30.379c0,0,5.249-22.635-4.77-37.222
				c-10.985-15.999-28.537-17.349-39.184-17.655S242.054-593.564,236.276-562.847z"/>
			<path style="fill:#132C4C;" d="M83.155-639.727c2.589-11.877,7.169-22.995,13.277-33.084c0.091-0.149,0.178-0.297,0.264-0.446
				c0.867-1.421,1.759-2.821,2.688-4.196c0.107-0.161,0.223-0.314,0.334-0.475c1.59-2.325,3.267-4.576,5.026-6.769
				c0.475-0.595,0.95-1.189,1.437-1.776c0.814-0.971,1.635-1.924,2.482-2.866c0.735-0.822,1.491-1.619,2.251-2.416
				c1.078-1.127,2.172-2.238,3.296-3.32c1.024-0.991,2.065-1.966,3.126-2.916c0.706-0.628,1.417-1.243,2.135-1.85
				c1.194-1.012,2.412-1.995,3.647-2.953c0.512-0.396,1.004-0.809,1.524-1.198c1.697-1.272,3.444-2.478,5.22-3.651
				c0.624-0.413,1.255-0.809,1.891-1.21c1.458-0.921,2.94-1.813,4.444-2.664c0.5-0.285,0.987-0.582,1.491-0.859
				c1.908-1.045,3.857-2.024,5.831-2.957c0.64-0.301,1.293-0.586,1.941-0.875c1.528-0.686,3.073-1.334,4.634-1.949
				c0.657-0.26,1.305-0.529,1.97-0.776c1.991-0.739,4.006-1.421,6.05-2.044c0.822-0.252,1.652-0.471,2.482-0.706
				c1.379-0.388,2.771-0.747,4.171-1.078c0.611-0.145,1.21-0.334,1.825-0.471l9.833-25.097
				c-62.203,6.409-111.798,55.955-118.257,118.141l-34.637,13.224h57.235c0.041-7.83,0.917-15.458,2.519-22.813L83.155-639.727z"/>
		</g>
		<path style="fill:#1D76BB;" d="M-464.7-617.129h21.302v105.046H-464.7V-617.129z"/>
		<path style="fill:#1D76BB;" d="M-409.163-577.165h0.442c5.142-8.082,12.047-12.34,22.33-12.34
			c15.573,0,26.005,11.753,26.005,28.207v49.215h-19.98v-46.279c0-8.082-4.7-13.81-13.075-13.81c-8.817,0-15.28,7.054-15.28,17.337
			v42.752h-19.98v-75.369h19.542v10.287H-409.163z"/>
		<path style="fill:#1D76BB;" d="M-352.733-536.47h18.51c1.326,8.668,7.496,12.488,16.457,12.488c8.817,0,13.81-3.378,13.81-8.668
			c0-7.198-9.548-7.933-19.831-9.99c-13.517-2.643-26.74-6.314-26.74-22.772c0-16.309,13.517-24.093,30.705-24.093
			c19.835,0,30.854,9.841,32.324,24.973h-18.072c-0.88-8.082-6.021-11.018-14.545-11.018c-7.785,0-12.926,2.936-12.926,8.371
			c0,6.463,9.99,7.054,20.715,9.255c12.633,2.643,26.592,6.17,26.592,23.8c0,15.136-12.926,24.242-31.733,24.242
			C-339.365-509.878-351.556-520.459-352.733-536.47z"/>
		<path style="fill:#1D76BB;" d="M-276.769-617.129h19.98v17.923h-19.98V-617.129z M-276.769-587.448h19.98v75.369h-19.98V-587.448z
			"/>
		<path style="fill:#1D76BB;" d="M-245.916-509.878h19.835c1.615,4.7,5.873,8.375,15.132,8.375c11.316,0,16.746-5.435,16.746-15.722
			v-8.227h-0.442c-4.406,4.993-10.135,8.813-19.687,8.813c-16.746,0-33.199-13.224-33.199-35.995
			c0-22.479,13.513-36.875,32.613-36.875c9.404,0,16.309,3.671,20.864,9.99h0.293v-7.933h19.245v69.637
			c0,10.576-3.378,17.775-8.962,22.916c-6.314,5.877-16.011,8.52-27.178,8.52C-231.222-486.371-243.859-495.184-245.916-509.878z
			 M-193.17-553.072c0-11.018-5.877-20.422-17.923-20.422c-10.139,0-16.895,7.933-16.895,20.566c0,12.782,6.76,20.277,17.044,20.277
			C-198.311-532.65-193.17-541.909-193.17-553.072z"/>
		<path style="fill:#1D76BB;" d="M-141.593-577.607h0.442c5.435-7.933,11.605-11.902,21.888-11.902
			c15.573,0,26.005,11.753,26.005,28.207v49.219h-19.98v-46.279c0-8.082-4.7-13.81-13.075-13.81c-8.817,0-15.28,7.054-15.28,17.337
			v42.752h-19.98v-105.046h19.98C-141.593-617.129-141.593-577.607-141.593-577.607z"/>
		<path style="fill:#1D76BB;" d="M-86.778-587.448h10.432v-23.507h19.542v23.507h12.926v13.224h-12.926v39.96
			c0,5.583,3.085,7.496,7.491,7.496c2.499,0,5.877-0.149,5.877-0.149v14.694c0,0-4.551,0.293-12.489,0.293
			c-9.697,0-20.422-3.82-20.422-18.068v-44.23h-10.432L-86.778-587.448L-86.778-587.448z"/>
	</g>
</g>
<path style="fill:#132C4C;" d="M98.407,244.281c-0.413-0.624-0.809-1.255-1.21-1.891c-0.921-1.458-1.813-2.94-2.664-4.444
	c-0.285-0.5-0.582-0.987-0.859-1.491c-1.045-1.908-2.024-3.857-2.957-5.831c-0.301-0.64-0.586-1.293-0.876-1.941
	c-0.686-1.528-1.334-3.073-1.949-4.634c-0.26-0.657-0.529-1.305-0.776-1.97c-0.739-1.991-1.421-4.006-2.044-6.05
	c-0.252-0.822-0.471-1.652-0.706-2.482c-0.388-1.379-0.747-2.771-1.078-4.171c-0.145-0.611-0.339-1.21-0.471-1.825l-25.097-9.833
	c1.982,19.216,8.099,37.214,17.411,53.122c8.107-2.048,16.49-3.374,25.113-3.936C99.629,246.028,98.993,245.173,98.407,244.281z"/>
<g>
	<path style="fill:#132C4C;" d="M202.478,51.985l-12.881-33.736v56.413c0.021,0,0.041,0,0.062,0c7.661,0,15.132,0.793,22.35,2.292
		l-0.054-0.145c14.487,3.007,27.868,8.962,39.63,17.106l20.674-13.492C252.713,64.808,228.735,54.516,202.478,51.985z"/>
	<path style="fill:#132C4C;" d="M321.738,171.444c-2.445-25.886-12.451-49.554-27.653-68.968l-13.5,20.802
		c0.095,0.14,0.198,0.277,0.293,0.421c0.57,0.859,1.123,1.73,1.673,2.606c0.764,1.227,1.499,2.474,2.214,3.733
		c0.603,1.057,1.189,2.119,1.755,3.201c0.743,1.417,1.462,2.845,2.148,4.299c0.43,0.913,0.842,1.834,1.247,2.763
		c0.562,1.288,1.094,2.594,1.607,3.907c0.512,1.305,0.999,2.618,1.462,3.948c0.475,1.371,0.937,2.746,1.359,4.142
		c0.334,1.107,0.648,2.226,0.95,3.345c0.293,1.094,0.557,2.193,0.818,3.3c0.215,0.909,1.755,6.496,1.949,7.417l24.362,11.7
		L321.738,171.444z"/>
	<path style="fill:#132C4C;" d="M321.057,205.035c0.409-2.606,0.855-5.199,1.111-7.855l33.736-12.881h-56.413
		c0,0.021,0,0.041,0,0.062c0,3.349-0.215,6.649-0.512,9.924c6.905,2.053,14.306,5.625,20.756,11.964L321.057,205.035z"/>
	<path style="fill:none;" d="M189.531,205.106c0.632-0.033,1.264-0.07,1.908-0.178c11.803-1.966,17.717-11.006,17.89-19.972
		c0.186-9.676-6.405-19.175-19.798-19.687c-0.553-0.021-1.049-0.116-1.627-0.107c-6.562,1.264-14.615,5.216-17.362,14.43
		c-0.533,1.784-0.772,3.585-0.785,5.365C169.671,195.813,178.641,205.7,189.531,205.106z"/>
	<path style="fill:none;" d="M217.597,184.865c0.173-0.087,52.238-80.267,52.238-80.267s-66.395,43.598-80.168,52.651
		C207.112,155.664,218.919,168.404,217.597,184.865z"/>
	<path style="fill:#1D76BB;" d="M148.72,251.446c31.49-20.554,61.984-40.456,65.87-42.991c5.088-7.83,89.708-138.212,89.708-138.212
		s-130.642,85.252-138.576,90.43c-3.481,5.323-30.812,47.08-56.211,85.883c0.12,0,0.231-0.012,0.351-0.012
		C122.88,246.54,135.939,248.221,148.72,251.446z M269.839,104.599c0,0-52.064,80.18-52.238,80.267
		c1.322-16.461-10.486-29.202-27.926-27.616C203.444,148.201,269.839,104.599,269.839,104.599z M170.542,179.592
		c2.746-9.214,10.799-13.166,17.362-14.43c0.578-0.012,1.074,0.087,1.627,0.107c13.393,0.512,19.984,10.011,19.798,19.687
		c-0.169,8.966-6.087,18.006-17.89,19.972c-0.644,0.107-1.276,0.145-1.908,0.178c-10.89,0.595-19.864-9.292-19.773-20.149
		C169.774,183.18,170.014,181.38,170.542,179.592z"/>
	<path style="fill:#1D76BB;" d="M236.276,237.904c0,0,14.248-17.135,27.372-12.166c13.112,4.964,20.984,20.071,9.123,35.888
		s-42.578,20.071-63.562,15.813s-49.876-13.079-61.435-16.119c-11.559-3.04-75.121-19.158-126.215,30.11
		c0,0,46.53-32.844,109.485-13.992s86.676,41.971,136.251,40.146c49.574-1.825,70.256-21.896,86.375-44.705
		c0,0-33.15,39.233-96.105,23.722c0,0,71.165-0.306,86.069-34.67c14.904-34.364-5.476-51.4-16.424-61.435
		c0,0,7.632,9.66,9.061,25.279c0.942,10.283-2.309,21.764-13.926,30.379c0,0,5.249-22.635-4.77-37.222
		c-10.985-15.999-28.537-17.349-39.184-17.655C267.745,200.972,242.054,207.187,236.276,237.904z"/>
	<path style="fill:#132C4C;" d="M83.155,161.024c2.589-11.877,7.169-22.995,13.277-33.084c0.091-0.149,0.178-0.297,0.264-0.446
		c0.867-1.421,1.759-2.821,2.688-4.196c0.107-0.161,0.223-0.314,0.334-0.475c1.59-2.325,3.267-4.576,5.026-6.769
		c0.475-0.595,0.95-1.189,1.437-1.776c0.814-0.971,1.635-1.924,2.482-2.866c0.735-0.822,1.491-1.619,2.251-2.416
		c1.078-1.127,2.172-2.238,3.296-3.32c1.024-0.991,2.065-1.966,3.126-2.916c0.706-0.628,1.417-1.243,2.135-1.85
		c1.194-1.012,2.412-1.995,3.647-2.953c0.512-0.396,1.004-0.809,1.524-1.198c1.697-1.272,3.444-2.478,5.22-3.651
		c0.624-0.413,1.255-0.809,1.891-1.21c1.458-0.921,2.94-1.813,4.444-2.664c0.5-0.285,0.987-0.582,1.491-0.859
		c1.908-1.045,3.857-2.024,5.831-2.957c0.64-0.301,1.293-0.586,1.941-0.876c1.528-0.686,3.073-1.334,4.634-1.949
		c0.657-0.26,1.305-0.529,1.97-0.776c1.991-0.739,4.006-1.421,6.05-2.044c0.822-0.252,1.652-0.471,2.482-0.706
		c1.379-0.388,2.771-0.747,4.171-1.078c0.611-0.145,1.21-0.335,1.825-0.471l9.833-25.097
		C114.224,58.832,64.629,108.377,58.17,170.564l-34.637,13.224h57.235c0.041-7.83,0.917-15.458,2.519-22.813L83.155,161.024z"/>
</g>
<path style="fill:#FFFFFF;" d="M-633.353-270.474v-71.256h21.302v71.256c0,10.87,5.435,18.51,19.687,18.51
	c13.513,0,19.831-7.933,19.831-18.807v-70.958h21.302v71.256c0,22.479-13.81,35.553-40.695,35.553
	C-619.101-234.921-633.353-247.702-633.353-270.474z"/>
<path style="fill:#FFFFFF;" d="M-518.012-301.766h0.442c5.142-8.082,12.047-12.34,22.33-12.34c15.574,0,26.005,11.753,26.005,28.207
	v49.215h-19.98v-46.279c0-8.082-4.7-13.81-13.075-13.81c-8.817,0-15.28,7.054-15.28,17.337v42.752h-19.98v-75.365h19.542v10.283
	H-518.012z"/>
<path style="fill:#FFFFFF;" d="M-460.554-274.294c0-22.479,14.69-39.815,37.61-39.815c19.538,0,31.585,11.312,34.232,27.62h-19.542
	c-1.322-6.612-6.463-11.605-13.81-11.605c-12.051,0-18.221,9.255-18.221,23.8c0,14.252,5.728,23.8,17.923,23.8
	c8.082,0,13.81-4.262,15.132-12.782h19.245c-1.322,16.011-13.81,28.793-33.935,28.793
	C-445.715-234.479-460.554-251.816-460.554-274.294z"/>
<path style="fill:#FFFFFF;" d="M-359.316-302.208h0.442c5.435-7.933,11.605-11.902,21.888-11.902
	c15.574,0,26.005,11.753,26.005,28.207v49.215h-19.98v-46.274c0-8.082-4.7-13.81-13.075-13.81c-8.817,0-15.28,7.054-15.28,17.337
	v42.752h-19.98V-341.73h19.98C-359.316-341.73-359.316-302.208-359.316-302.208z"/>
<path style="fill:#FFFFFF;" d="M-253.527-245.059h-0.293c-3.82,5.732-9.255,10.139-22.185,10.139
	c-15.425,0-26.299-8.082-26.299-23.065c0-16.602,13.513-21.888,30.263-24.242c12.489-1.763,18.217-2.792,18.217-8.52
	c0-5.435-4.262-8.958-12.637-8.958c-9.404,0-13.955,3.378-14.545,10.576h-17.775c0.586-13.224,10.432-24.828,32.469-24.828
	c22.627,0,31.733,10.139,31.733,27.769v38.345c0,5.728,0.88,9.106,2.643,10.432v0.735h-19.245
	C-252.35-238.15-253.085-241.677-253.527-245.059z M-253.378-263.276v-11.316c-3.527,2.057-8.962,3.234-13.959,4.411
	c-10.432,2.35-15.573,4.7-15.573,11.753s4.7,9.548,11.753,9.548C-259.697-248.879-253.378-255.929-253.378-263.276z"/>
<path style="fill:#FFFFFF;" d="M-202.685-300.002h0.442c4.555-8.52,9.697-12.926,18.514-12.926c2.205,0,3.527,0.145,4.7,0.586
	v17.481h-0.442c-13.075-1.322-22.479,5.583-22.479,21.45v36.73h-19.98v-75.369h19.245
	C-202.685-312.049-202.685-300.002-202.685-300.002z"/>
<path style="fill:#FFFFFF;" d="M-174.028-312.049h10.432v-23.507h19.542v23.507h12.926v13.224h-12.926v39.96
	c0,5.584,3.085,7.496,7.491,7.496c2.499,0,5.877-0.149,5.877-0.149v14.694c0,0-4.551,0.293-12.489,0.293
	c-9.697,0-20.422-3.82-20.422-18.068v-44.23h-10.432V-312.049z"/>
<path style="fill:#FFFFFF;" d="M-125.247-274.439c0-22.334,15.132-39.667,37.168-39.667c24.238,0,37.168,18.51,37.168,45.395h-54.65
	c1.466,11.605,7.933,18.807,19.245,18.807c7.785,0,12.34-3.527,14.545-9.255h19.687c-2.792,13.372-14.694,24.684-34.083,24.684
	C-111.144-234.479-125.247-251.964-125.247-274.439z M-105.267-282.521h33.497c-0.591-9.552-6.905-16.16-16.015-16.16
	C-98.362-298.681-103.503-292.362-105.267-282.521z"/>
<path style="fill:#FFFFFF;" d="M28.584-341.73H8.604v38.787H8.162c-4.113-6.319-10.725-11.167-21.302-11.167
	c-18.807,0-32.175,16.309-32.175,39.815c0,24.386,12.926,39.815,31.878,39.815c10.581,0,18.068-4.848,22.478-12.047h0.293v9.784
	l19.245-7.392v-97.596H28.584z M-9.026-251.229c-10.283,0-16.011-8.52-16.011-23.065c0-13.959,5.584-23.651,16.602-23.651
	c12.782,0,17.481,9.693,17.481,24.093C9.046-260.042,2.876-251.229-9.026-251.229z"/>
<path style="fill:#FFFFFF;" d="M98.407-164.565c-0.413-0.624-0.809-1.255-1.21-1.891c-0.921-1.458-1.813-2.94-2.664-4.444
	c-0.285-0.5-0.582-0.987-0.859-1.491c-1.045-1.908-2.024-3.857-2.957-5.831c-0.301-0.64-0.586-1.293-0.876-1.941
	c-0.686-1.528-1.334-3.073-1.949-4.634c-0.26-0.657-0.529-1.305-0.776-1.97c-0.739-1.991-1.421-4.006-2.044-6.05
	c-0.252-0.822-0.471-1.652-0.706-2.482c-0.388-1.379-0.747-2.771-1.078-4.171c-0.145-0.611-0.339-1.21-0.471-1.825l-25.097-9.833
	c1.982,19.216,8.099,37.214,17.411,53.122c8.107-2.048,16.49-3.374,25.113-3.936C99.629-162.818,98.993-163.673,98.407-164.565z"/>
<path style="fill:#1D76BB;" d="M28.547-136.004c0.533-1.949,0.888-3.994,0.888-6.215c0-17.63-13.959-21.153-26.592-23.8
	c-10.725-2.205-20.715-2.792-20.715-9.255c0-5.435,5.142-8.371,12.926-8.371c8.52,0,13.661,2.936,14.545,11.018h18.072
	C26.201-187.758,15.183-197.6-4.652-197.6c-17.188,0-30.705,7.785-30.705,24.093c0,16.457,13.224,20.129,26.741,22.772
	c10.283,2.057,19.831,2.792,19.831,9.99c0,5.286-4.993,8.668-13.81,8.668c-8.962,0-15.132-3.82-16.457-12.489h-18.51
	c1.177,16.011,13.368,26.592,35.26,26.592c4.283,0,8.21-0.529,11.799-1.437l5.232-5.084
	C19.106-128.719,23.765-132.469,28.547-136.004z"/>
<path style="fill:#FFFFFF;" d="M202.478-356.861l-12.881-33.736v56.413c0.021,0,0.041,0,0.062,0c7.661,0,15.132,0.793,22.35,2.292
	l-0.054-0.145c14.487,3.007,27.868,8.962,39.63,17.106l20.674-13.492C252.713-344.038,228.735-354.33,202.478-356.861z"/>
<path style="fill:#FFFFFF;" d="M321.738-237.403c-2.445-25.886-12.451-49.554-27.653-68.968l-13.5,20.802
	c0.095,0.14,0.198,0.277,0.293,0.421c0.57,0.859,1.123,1.73,1.673,2.606c0.764,1.227,1.499,2.474,2.214,3.733
	c0.603,1.057,1.189,2.119,1.755,3.201c0.743,1.417,1.462,2.845,2.148,4.299c0.43,0.913,0.842,1.834,1.247,2.763
	c0.562,1.288,1.094,2.594,1.607,3.907c0.512,1.305,0.999,2.618,1.462,3.948c0.475,1.371,0.937,2.746,1.359,4.142
	c0.334,1.107,0.648,2.226,0.95,3.345c0.293,1.094,0.557,2.193,0.818,3.3c0.215,0.909,1.755,6.496,1.949,7.417l24.362,11.7
	L321.738-237.403z"/>
<path style="fill:#FFFFFF;" d="M321.057-203.811c0.409-2.606,0.855-5.199,1.111-7.855l33.736-12.881h-56.413
	c0,0.021,0,0.041,0,0.062c0,3.349-0.215,6.649-0.512,9.924c6.905,2.053,14.306,5.625,20.756,11.964L321.057-203.811z"/>
<path style="fill:#1D76BB;" d="M236.276-170.942c0,0,14.248-17.135,27.372-12.166c13.112,4.964,20.984,20.071,9.123,35.888
	s-42.578,20.071-63.562,15.813c-20.984-4.258-49.876-13.079-61.435-16.119c-11.559-3.04-75.121-19.158-126.215,30.11
	c0,0,46.53-32.844,109.485-13.992c62.955,18.853,86.676,41.971,136.251,40.146c49.574-1.825,70.256-21.896,86.375-44.705
	c0,0-33.15,39.233-96.105,23.722c0,0,71.165-0.306,86.069-34.67c14.904-34.364-5.476-51.4-16.424-61.435
	c0,0,7.632,9.66,9.061,25.279c0.942,10.283-2.309,21.764-13.926,30.379c0,0,5.249-22.635-4.77-37.222
	c-10.985-15.999-28.537-17.349-39.184-17.655S242.054-201.659,236.276-170.942z"/>
<path style="fill:#FFFFFF;" d="M83.155-247.822c2.589-11.877,7.169-22.995,13.277-33.084c0.091-0.149,0.178-0.297,0.264-0.446
	c0.867-1.421,1.759-2.821,2.688-4.196c0.107-0.161,0.223-0.314,0.334-0.475c1.59-2.325,3.267-4.576,5.026-6.769
	c0.475-0.595,0.95-1.189,1.437-1.776c0.814-0.97,1.635-1.924,2.482-2.866c0.735-0.822,1.491-1.619,2.251-2.416
	c1.078-1.127,2.172-2.238,3.296-3.32c1.024-0.991,2.065-1.966,3.126-2.916c0.706-0.628,1.417-1.243,2.135-1.85
	c1.194-1.012,2.412-1.995,3.647-2.953c0.512-0.396,1.004-0.809,1.524-1.198c1.697-1.272,3.444-2.478,5.22-3.651
	c0.624-0.413,1.255-0.809,1.891-1.21c1.458-0.921,2.94-1.813,4.444-2.664c0.5-0.285,0.987-0.582,1.491-0.859
	c1.908-1.045,3.857-2.024,5.831-2.957c0.64-0.301,1.293-0.586,1.941-0.876c1.528-0.686,3.073-1.334,4.634-1.949
	c0.657-0.26,1.305-0.529,1.97-0.776c1.991-0.739,4.006-1.421,6.05-2.044c0.822-0.252,1.652-0.471,2.482-0.706
	c1.379-0.388,2.771-0.747,4.171-1.078c0.611-0.145,1.21-0.335,1.825-0.471l9.833-25.097
	c-62.203,6.409-111.798,55.955-118.257,118.141l-34.637,13.224h57.235c0.041-7.83,0.917-15.458,2.519-22.813L83.155-247.822z"/>
<path style="fill:#1D76BB;" d="M-464.7-225.224h21.302v105.046H-464.7V-225.224z"/>
<path style="fill:#1D76BB;" d="M-409.163-185.26h0.442c5.142-8.082,12.047-12.34,22.33-12.34c15.573,0,26.005,11.753,26.005,28.207
	v49.215h-19.98v-46.279c0-8.082-4.7-13.81-13.075-13.81c-8.817,0-15.28,7.054-15.28,17.337v42.752h-19.98v-75.369h19.542v10.287
	H-409.163z"/>
<path style="fill:#1D76BB;" d="M-352.733-144.565h18.51c1.326,8.668,7.496,12.489,16.457,12.489c8.817,0,13.81-3.378,13.81-8.668
	c0-7.198-9.548-7.933-19.831-9.99c-13.517-2.643-26.74-6.314-26.74-22.772c0-16.309,13.517-24.093,30.705-24.093
	c19.835,0,30.854,9.841,32.324,24.973h-18.072c-0.88-8.082-6.021-11.018-14.545-11.018c-7.785,0-12.926,2.936-12.926,8.371
	c0,6.463,9.99,7.054,20.715,9.255c12.633,2.643,26.592,6.17,26.592,23.8c0,15.136-12.926,24.242-31.733,24.242
	C-339.365-117.973-351.556-128.553-352.733-144.565z"/>
<path style="fill:#1D76BB;" d="M-276.769-225.224h19.98v17.923h-19.98V-225.224z M-276.769-195.543h19.98v75.369h-19.98V-195.543z"
	/>
<path style="fill:#1D76BB;" d="M-245.916-117.973h19.835c1.615,4.7,5.873,8.375,15.132,8.375c11.316,0,16.746-5.435,16.746-15.722
	v-8.227h-0.442c-4.406,4.993-10.135,8.813-19.687,8.813c-16.746,0-33.199-13.224-33.199-35.995
	c0-22.479,13.513-36.875,32.613-36.875c9.404,0,16.309,3.671,20.864,9.99h0.293v-7.933h19.245v69.637
	c0,10.576-3.378,17.775-8.962,22.916c-6.314,5.877-16.011,8.52-27.178,8.52C-231.222-94.466-243.859-103.279-245.916-117.973z
	 M-193.17-161.167c0-11.018-5.877-20.422-17.923-20.422c-10.139,0-16.895,7.933-16.895,20.566c0,12.782,6.76,20.277,17.044,20.277
	C-198.311-140.745-193.17-150.004-193.17-161.167z"/>
<path style="fill:#1D76BB;" d="M-141.593-185.702h0.442c5.435-7.933,11.605-11.902,21.888-11.902
	c15.573,0,26.005,11.753,26.005,28.207v49.219h-19.98v-46.279c0-8.082-4.7-13.81-13.075-13.81c-8.817,0-15.28,7.054-15.28,17.337
	v42.752h-19.98v-105.046h19.98C-141.593-225.224-141.593-185.702-141.593-185.702z"/>
<path style="fill:#1D76BB;" d="M-86.778-195.543h10.432v-23.507h19.542v23.507h12.926v13.224h-12.926v39.96
	c0,5.583,3.085,7.496,7.491,7.496c2.499,0,5.877-0.149,5.877-0.149v14.694c0,0-4.551,0.293-12.489,0.293
	c-9.697,0-20.422-3.82-20.422-18.068v-44.23h-10.432L-86.778-195.543L-86.778-195.543z"/>
<path style="fill:#1D76BB;" d="M148.72-157.4c31.49-20.554,61.984-40.456,65.87-42.991c5.088-7.83,89.708-138.212,89.708-138.212
	s-130.642,85.252-138.576,90.43c-3.481,5.323-30.812,47.08-56.211,85.883c0.12,0,0.231-0.012,0.351-0.012
	C122.88-162.306,135.939-160.626,148.72-157.4z M169.758-223.89c0.012-1.78,0.252-3.581,0.785-5.365
	c2.746-9.214,10.799-13.166,17.362-14.43c0.578-0.008,1.074,0.087,1.627,0.107c13.393,0.512,19.984,10.011,19.798,19.687
	c-0.173,8.966-6.087,18.006-17.89,19.972c-0.644,0.107-1.276,0.145-1.908,0.178C178.641-203.146,169.671-213.033,169.758-223.89z
	 M189.667-251.597c13.773-9.053,80.168-52.651,80.168-52.651s-52.064,80.18-52.238,80.267
	C218.919-240.442,207.112-253.183,189.667-251.597z"/>
</svg>
